{"glyphs":{"0":{"ha":811,"x_min":90,"x_max":721,"o":"m 721 483 q 406 -30 721 -30 q 90 483 90 -30 q 406 995 90 995 q 721 483 721 995 m 462 951 q 449 964 462 951 q 406 976 437 976 q 349 951 374 976 q 302 872 323 926 q 269 719 281 817 q 258 483 258 620 q 269 247 258 346 q 302 94 281 149 q 349 14 323 39 q 406 -11 374 -11 q 462 14 437 -11 q 509 94 488 39 q 542 247 530 149 q 553 483 553 346 q 542 719 553 620 q 509 872 530 817 q 462 951 488 926 z "},"1":{"ha":467,"x_min":82,"x_max":382,"o":"m 82 882 l 326 965 l 326 149 q 382 5 326 34 l 382 0 l 102 0 l 102 5 q 158 149 158 34 l 158 752 q 158 770 158 764 q 157 790 158 777 q 155 811 157 803 q 151 831 154 820 q 145 850 149 843 q 135 865 141 857 q 122 875 130 872 q 104 878 115 878 q 82 873 94 878 l 82 882 z "},"2":{"ha":814,"x_min":82,"x_max":722,"o":"m 82 0 q 108 102 82 52 q 176 193 134 151 q 268 275 218 234 q 369 360 318 317 q 461 451 419 404 q 529 559 503 498 q 555 686 555 620 q 547 807 555 755 q 526 891 539 859 q 493 942 513 922 q 453 969 473 962 q 407 976 433 976 q 363 969 382 976 q 325 943 344 962 q 292 887 306 924 q 271 794 279 850 q 387 543 256 599 l 387 537 l 92 602 q 108 756 92 688 q 152 868 124 823 q 220 941 180 912 q 307 983 260 970 q 407 995 353 995 q 634 916 546 995 q 722 686 722 838 q 696 562 722 621 q 630 460 669 503 q 532 374 590 417 q 422 301 474 331 q 309 233 371 271 q 210 168 246 195 l 508 168 q 584 179 549 168 q 640 205 618 191 q 679 241 661 220 q 704 273 697 262 q 716 296 710 283 l 722 296 l 722 0 l 82 0 z "},"3":{"ha":878,"x_min":85,"x_max":793,"o":"m 108 692 q 132 834 108 774 q 200 928 156 894 q 299 979 244 962 q 423 995 355 995 q 649 925 559 995 q 739 736 739 855 q 673 607 739 658 q 499 538 607 557 q 613 507 562 528 q 706 453 665 487 q 770 367 747 419 q 793 249 793 315 q 763 123 793 178 q 683 36 733 68 q 571 -13 633 3 q 442 -30 510 -30 q 337 -18 387 -30 q 241 24 288 -5 q 160 98 194 54 q 105 210 125 142 q 85 363 85 278 l 380 428 l 380 422 q 329 391 351 410 q 288 340 306 372 q 266 268 269 309 q 270 171 262 227 q 442 -11 311 -11 q 492 -5 469 -11 q 541 17 515 0 q 584 62 566 35 q 613 138 602 90 q 625 249 625 186 q 376 528 625 528 l 376 547 q 464 556 428 547 q 521 582 500 566 q 553 623 542 597 q 568 674 565 649 q 571 736 571 699 q 528 910 571 844 q 423 976 485 976 q 298 874 332 976 q 283 785 283 826 q 294 716 283 743 q 321 671 306 688 q 354 644 336 654 l 354 639 l 108 692 z "},"4":{"ha":744,"x_min":71,"x_max":659,"o":"m 435 965 l 659 965 l 659 960 q 603 816 603 932 l 603 149 q 659 5 603 34 l 659 0 l 379 0 l 379 5 q 435 149 435 34 l 435 244 l 71 244 l 71 325 l 435 965 m 435 325 l 435 932 l 90 325 l 435 325 z "},"5":{"ha":875,"x_min":82,"x_max":790,"o":"m 378 422 q 281 332 315 396 q 267 171 247 267 q 439 -11 308 -11 q 489 -2 465 -11 q 538 29 513 6 q 581 87 563 52 q 611 181 600 123 q 623 313 623 239 q 416 637 623 637 q 280 624 358 637 q 154 591 201 610 l 151 595 l 144 602 l 222 965 l 699 965 l 699 704 l 694 704 q 681 727 688 716 q 656 758 675 737 q 617 794 638 779 q 561 821 595 809 q 485 832 526 832 l 213 832 l 165 610 q 283 642 213 628 q 416 656 354 656 q 690 565 590 656 q 790 313 790 473 q 771 174 790 234 q 722 75 753 113 q 645 13 690 37 q 549 -20 599 -11 q 439 -30 499 -30 q 334 -18 384 -30 q 237 24 284 -5 q 157 98 191 54 q 102 210 123 142 q 82 363 82 278 l 378 428 l 378 422 z "},"6":{"ha":883,"x_min":87,"x_max":795,"o":"m 500 677 q 556 712 531 686 q 595 771 581 738 q 612 840 610 804 q 604 906 614 876 q 564 956 593 937 q 488 976 534 976 q 394 939 435 976 q 326 836 353 902 q 283 688 299 770 q 260 508 267 607 q 339 617 286 578 q 465 656 393 656 q 709 566 622 656 q 795 313 795 475 q 768 163 795 229 q 691 55 740 96 q 580 -8 643 14 q 445 -30 517 -30 q 340 -18 390 -30 q 243 24 290 -5 q 162 98 197 54 q 108 210 128 142 q 87 363 87 278 q 102 551 87 460 q 148 722 116 641 q 225 864 179 804 q 338 959 271 924 q 488 995 406 995 q 612 974 557 995 q 701 916 667 952 q 753 834 735 880 q 772 736 772 788 l 500 671 l 500 677 m 465 637 q 315 564 376 637 q 255 363 255 491 q 445 -11 255 -11 q 495 -2 471 -11 q 544 29 519 6 q 587 87 568 52 q 616 181 605 123 q 628 313 628 239 q 627 379 628 353 q 623 443 627 406 q 613 505 620 480 q 595 557 607 530 q 566 600 583 584 q 523 627 549 616 q 465 637 497 637 z "},"7":{"ha":814,"x_min":68,"x_max":758,"o":"m 758 965 l 392 149 q 367 77 374 109 q 365 28 361 45 q 381 5 369 12 l 381 0 l 101 0 l 101 5 q 224 149 175 42 l 578 941 l 406 941 q 298 922 351 941 q 208 879 245 904 q 140 825 171 854 q 94 776 109 795 q 74 747 79 756 l 68 747 l 148 965 l 758 965 z "},"8":{"ha":890,"x_min":87,"x_max":802,"o":"m 131 787 q 445 995 131 995 q 758 787 758 995 q 708 651 758 701 q 564 586 657 600 q 656 555 616 574 q 731 502 696 536 q 783 413 765 467 q 802 284 802 358 q 791 184 802 229 q 762 106 780 138 q 716 50 743 75 q 659 11 689 26 q 592 -14 629 -4 q 520 -26 555 -23 q 445 -30 485 -30 q 340 -23 387 -30 q 244 5 292 -16 q 162 59 195 26 q 108 150 129 93 q 87 284 87 208 q 106 413 87 358 q 158 502 124 467 q 233 555 193 536 q 326 586 273 574 q 181 651 232 600 q 131 787 131 701 m 634 284 q 626 393 634 345 q 603 473 618 441 q 569 526 587 504 q 529 558 551 547 q 487 574 507 570 q 445 578 467 578 q 395 572 418 578 q 344 547 371 566 q 299 497 317 528 q 268 411 280 466 q 255 284 255 357 q 268 157 255 212 q 299 71 280 102 q 344 21 317 40 q 394 -5 370 1 q 445 -11 418 -11 q 495 -5 471 -11 q 545 21 519 1 q 591 71 572 40 q 622 157 610 102 q 634 284 634 212 m 555 644 q 573 667 555 644 q 591 787 591 690 q 555 929 591 883 q 445 976 519 976 q 298 787 298 976 q 445 597 298 597 q 555 644 519 597 z "},"9":{"ha":887,"x_min":89,"x_max":797,"o":"m 397 -30 q 273 -8 328 -30 q 184 49 218 13 q 132 131 150 85 q 113 229 113 177 l 385 294 l 385 288 q 329 254 354 279 q 290 195 304 228 q 273 125 275 161 q 281 59 271 89 q 321 9 292 28 q 397 -11 351 -11 q 523 33 475 -11 q 596 181 570 77 q 627 465 621 284 q 548 350 602 391 q 419 309 494 309 q 170 397 250 309 q 89 652 89 486 q 107 791 89 731 q 157 890 126 852 q 234 952 189 928 q 330 985 280 976 q 440 995 380 995 q 545 983 495 995 q 642 941 595 970 q 722 868 688 912 q 777 756 756 824 q 797 602 797 688 q 789 401 797 489 q 767 246 782 313 q 728 132 753 179 q 673 53 703 85 q 599 3 642 21 q 508 -22 556 -15 q 397 -30 460 -30 m 420 328 q 569 401 508 328 q 629 602 629 475 q 440 976 629 976 q 390 967 414 976 q 341 936 366 959 q 298 878 316 913 q 268 784 279 842 q 256 652 256 726 q 257 586 256 612 q 261 522 258 559 q 271 460 264 485 q 290 408 277 435 q 319 365 302 381 q 361 338 336 349 q 420 328 387 328 z "},"\u0000":{"ha":0,"x_min":0,"x_max":0,"o":""},"\n":{"ha":0,"x_min":0,"x_max":0,"o":""},"\r":{"ha":0,"x_min":0,"x_max":0,"o":""}," ":{"ha":472,"x_min":0,"x_max":0,"o":""},"!":{"ha":349,"x_min":83,"x_max":265,"o":"m 165 190 q 158 306 165 252 q 140 409 151 359 q 118 518 129 458 q 99 681 107 578 q 92 913 92 783 q 116 971 92 947 q 174 995 140 995 q 233 970 208 995 q 258 911 258 945 q 250 679 258 781 q 231 517 242 577 q 210 409 220 458 q 191 306 199 359 q 184 190 184 252 l 165 190 m 252 22 q 206 -24 239 -10 q 142 -24 174 -37 q 97 22 110 -11 q 97 86 83 54 q 142 131 111 118 q 206 132 174 144 q 252 86 238 119 q 252 22 265 54 z "},"\"":{"ha":480,"x_min":56,"x_max":425,"o":"m 168 992 q 218 954 201 983 q 228 892 236 925 q 228 891 228 891 q 227 890 227 891 q 198 831 218 857 q 154 794 177 805 q 105 780 130 783 q 63 787 81 777 q 115 795 83 778 q 138 822 141 810 q 125 830 136 827 q 74 869 92 839 q 65 932 56 899 q 104 983 74 966 q 168 992 134 1001 m 356 992 q 407 954 389 983 q 416 892 425 925 q 416 891 416 891 q 416 890 416 891 q 386 831 407 857 q 342 794 366 805 q 294 780 319 783 q 252 787 269 777 q 304 795 271 778 q 326 822 330 810 q 314 830 325 827 q 263 869 281 839 q 254 932 245 899 q 292 983 262 966 q 356 992 322 1001 z "},"“":{"ha":480,"x_min":56,"x_max":425,"o":"m 168 992 q 218 954 201 983 q 228 892 236 925 q 228 891 228 891 q 227 890 227 891 q 198 831 218 857 q 154 794 177 805 q 105 780 130 783 q 63 787 81 777 q 115 795 83 778 q 138 822 141 810 q 125 830 136 827 q 74 869 92 839 q 65 932 56 899 q 104 983 74 966 q 168 992 134 1001 m 356 992 q 407 954 389 983 q 416 892 425 925 q 416 891 416 891 q 416 890 416 891 q 386 831 407 857 q 342 794 366 805 q 294 780 319 783 q 252 787 269 777 q 304 795 271 778 q 326 822 330 810 q 314 830 325 827 q 263 869 281 839 q 254 932 245 899 q 292 983 262 966 q 356 992 322 1001 z "},"”":{"ha":480,"x_min":56,"x_max":425,"o":"m 168 992 q 218 954 201 983 q 228 892 236 925 q 228 891 228 891 q 227 890 227 891 q 198 831 218 857 q 154 794 177 805 q 105 780 130 783 q 63 787 81 777 q 115 795 83 778 q 138 822 141 810 q 125 830 136 827 q 74 869 92 839 q 65 932 56 899 q 104 983 74 966 q 168 992 134 1001 m 356 992 q 407 954 389 983 q 416 892 425 925 q 416 891 416 891 q 416 890 416 891 q 386 831 407 857 q 342 794 366 805 q 294 780 319 783 q 252 787 269 777 q 304 795 271 778 q 326 822 330 810 q 314 830 325 827 q 263 869 281 839 q 254 932 245 899 q 292 983 262 966 q 356 992 322 1001 z "},"#":{"ha":500,"x_min":74,"x_max":427,"o":"m 427 544 l 368 544 l 354 421 l 418 421 l 418 402 l 352 402 l 335 248 l 265 248 l 283 402 l 199 402 l 182 248 l 113 248 l 130 402 l 74 402 l 74 421 l 132 421 l 146 544 l 83 544 l 83 564 l 149 564 l 165 717 l 235 717 l 218 564 l 300 564 l 318 717 l 387 717 l 370 564 l 427 564 l 427 544 m 285 421 l 298 544 l 216 544 l 202 421 l 285 421 z "},"$":{"ha":886,"x_min":87,"x_max":802,"o":"m 475 601 q 642 516 576 556 q 742 437 707 477 q 789 360 777 397 q 802 275 802 323 q 710 66 802 151 q 475 -28 618 -18 l 475 -113 l 456 -113 l 456 -30 l 438 -30 l 435 -30 l 435 -113 l 415 -113 l 415 -29 q 331 -19 380 -27 q 243 -2 282 -11 q 169 12 204 6 q 113 15 133 18 q 94 0 94 13 l 87 0 l 87 248 l 94 248 q 110 189 94 222 q 156 123 125 156 q 224 61 186 90 q 313 13 263 33 q 415 -10 363 -7 l 415 459 q 375 476 401 465 q 276 519 308 505 q 200 559 245 533 q 137 607 156 585 q 102 664 117 630 q 87 739 87 697 q 110 827 87 783 q 172 910 132 872 q 272 971 211 947 q 402 995 332 995 l 415 995 l 415 1078 l 435 1078 l 435 994 q 445 992 438 993 q 456 991 452 991 l 456 1078 l 475 1078 l 475 989 q 544 976 505 984 q 611 961 584 967 q 664 951 638 955 q 702 950 689 947 q 715 965 715 954 l 721 965 l 721 718 l 715 718 q 697 785 715 748 q 650 859 680 823 q 574 925 621 895 q 475 968 528 955 l 475 601 m 415 627 l 415 976 l 402 976 q 242 931 307 976 q 178 825 178 886 q 195 763 178 790 q 265 702 212 736 q 415 627 317 669 m 456 -10 l 456 441 q 435 451 445 447 l 435 -11 l 438 -11 q 447 -11 441 -11 q 456 -10 453 -10 m 456 610 l 456 971 q 435 975 443 974 l 435 618 q 445 614 438 617 q 456 610 452 611 m 475 -9 q 638 49 576 -1 q 699 174 699 99 q 645 314 699 251 q 475 433 590 378 l 475 -9 z "},"%":{"ha":761,"x_min":74,"x_max":688,"o":"m 492 965 l 562 965 l 269 0 l 199 0 l 492 965 m 339 880 q 360 855 339 880 q 380 755 380 830 q 339 631 380 681 q 227 581 297 581 q 116 631 157 581 q 74 755 74 681 q 116 880 74 830 q 227 929 157 929 q 339 880 297 929 m 214 866 q 211 843 214 866 q 208 755 208 821 q 214 645 208 690 q 227 600 219 600 q 241 645 235 600 q 246 755 246 690 q 241 866 246 821 q 227 910 235 910 q 214 866 219 910 m 422 334 q 443 359 422 334 q 534 384 464 384 q 646 334 604 384 q 688 210 688 285 q 646 86 688 136 q 534 36 604 36 q 422 86 464 36 q 380 210 380 136 q 422 334 380 285 m 520 99 q 523 77 520 99 q 534 55 526 55 q 547 100 542 55 q 553 210 553 144 q 547 320 553 276 q 534 365 542 365 q 520 321 526 365 q 515 210 515 277 q 520 99 515 144 z "},"&":{"ha":1251,"x_min":74,"x_max":1179,"o":"m 1139 307 q 1149 240 1139 300 q 1167 124 1158 180 q 1179 52 1176 67 q 880 94 1047 31 q 723 3 809 36 q 547 -30 637 -30 q 296 -2 400 -30 q 133 89 193 26 q 74 246 74 151 q 94 340 74 297 q 143 410 113 382 q 213 458 173 437 q 287 489 252 479 q 357 505 322 500 q 278 690 292 604 q 279 790 270 744 q 312 868 289 836 q 370 926 335 901 q 444 965 404 951 q 528 987 484 980 q 602 995 568 994 q 673 991 637 996 q 736 973 709 986 q 783 933 764 960 q 809 871 803 907 q 790 773 817 825 q 721 679 763 720 q 632 608 679 637 q 551 572 585 578 l 549 587 q 587 608 568 589 q 623 659 606 626 q 646 739 640 692 q 644 845 652 785 q 602 944 633 913 q 531 968 571 975 q 437 899 469 958 q 419 751 406 840 q 478 572 433 663 q 585 406 523 481 q 718 270 647 331 q 860 172 789 210 q 900 354 913 260 q 877 429 894 398 q 840 473 860 459 q 797 492 819 487 q 755 492 774 496 q 724 479 736 488 l 724 485 l 915 646 q 1016 568 976 629 q 1057 429 1057 506 q 1023 278 1057 353 q 930 140 989 203 q 1019 123 979 123 q 1088 141 1059 123 q 1128 201 1116 159 q 1133 306 1141 243 l 1139 307 m 547 -11 q 693 24 619 -11 q 820 119 766 60 q 562 281 684 180 q 364 493 439 382 q 266 409 309 472 q 223 257 223 347 q 242 147 223 195 q 293 70 262 99 q 367 22 323 41 q 454 -4 410 3 q 547 -11 498 -11 z "},"'":{"ha":292,"x_min":56,"x_max":236,"o":"m 168 992 q 218 954 201 983 q 228 892 236 925 q 228 891 228 891 q 227 890 227 891 q 198 831 218 857 q 154 794 177 805 q 105 780 130 783 q 63 787 81 777 q 115 795 83 778 q 138 822 141 810 q 125 830 136 827 q 74 869 92 839 q 65 932 56 899 q 104 983 74 966 q 168 992 134 1001 z "},"‘":{"ha":292,"x_min":56,"x_max":236,"o":"m 168 992 q 218 954 201 983 q 228 892 236 925 q 228 891 228 891 q 227 890 227 891 q 198 831 218 857 q 154 794 177 805 q 105 780 130 783 q 63 787 81 777 q 115 795 83 778 q 138 822 141 810 q 125 830 136 827 q 74 869 92 839 q 65 932 56 899 q 104 983 74 966 q 168 992 134 1001 z "},"’":{"ha":292,"x_min":56,"x_max":236,"o":"m 168 992 q 218 954 201 983 q 228 892 236 925 q 228 891 228 891 q 227 890 227 891 q 198 831 218 857 q 154 794 177 805 q 105 780 130 783 q 63 787 81 777 q 115 795 83 778 q 138 822 141 810 q 125 830 136 827 q 74 869 92 839 q 65 932 56 899 q 104 983 74 966 q 168 992 134 1001 z "},"(":{"ha":349,"x_min":92,"x_max":310,"o":"m 310 976 q 253 951 279 976 q 207 872 228 926 q 174 719 185 817 q 162 483 162 620 q 174 247 162 346 q 207 94 185 149 q 253 14 228 39 q 310 -11 279 -11 l 310 -30 q 202 10 246 -30 q 135 123 158 50 q 101 284 111 197 q 92 483 92 370 q 96 627 92 563 q 109 751 100 692 q 135 854 119 811 q 175 930 151 897 q 233 979 199 962 q 310 995 267 995 l 310 976 z "},")":{"ha":349,"x_min":37,"x_max":256,"o":"m 37 995 q 127 968 89 995 q 190 896 166 941 q 229 783 214 850 q 250 644 244 715 q 256 483 256 572 q 252 338 256 403 q 238 214 248 273 q 212 111 229 155 q 172 35 196 68 q 115 -14 149 3 q 37 -30 81 -30 l 37 -11 q 94 14 68 -11 q 141 94 119 39 q 174 247 162 149 q 185 483 185 346 q 174 719 185 620 q 141 872 162 817 q 94 951 119 926 q 37 976 68 976 l 37 995 z "},"*":{"ha":415,"x_min":33,"x_max":382,"o":"m 234 831 l 382 820 l 234 810 q 218 793 220 808 l 208 646 l 197 793 q 181 810 195 808 l 33 820 l 181 831 q 197 847 195 832 l 208 994 l 218 847 q 234 831 220 832 z "},"+":{"ha":525,"x_min":61,"x_max":463,"o":"m 297 492 l 463 492 l 463 473 l 297 473 l 297 281 l 227 281 l 227 473 l 61 473 l 61 492 l 227 492 l 227 683 l 297 683 l 297 492 z "},",":{"ha":290,"x_min":55,"x_max":235,"o":"m 166 163 q 217 124 199 154 q 227 62 235 95 q 226 61 227 61 q 226 60 226 61 q 196 1 217 26 q 152 -36 176 -25 q 104 -51 129 -47 q 62 -43 79 -54 q 113 -35 81 -52 q 136 -8 138 -20 q 123 1 134 -2 q 73 39 90 9 q 64 102 55 68 q 102 154 73 136 q 166 163 132 172 z "},"-":{"ha":431,"x_min":50,"x_max":381,"o":"m 381 448 l 50 448 l 50 517 l 381 517 l 381 448 z "},".":{"ha":290,"x_min":61,"x_max":229,"o":"m 204 22 q 192 10 204 22 q 145 -2 180 -2 q 86 22 111 -2 q 61 81 61 47 q 86 141 61 116 q 145 165 111 165 q 204 141 180 165 q 229 81 229 116 q 204 22 229 47 z "},"/":{"ha":497,"x_min":68,"x_max":430,"o":"m 360 965 l 430 965 l 138 0 l 68 0 l 360 965 z "},":":{"ha":312,"x_min":66,"x_max":247,"o":"m 230 261 q 222 246 230 261 q 180 220 214 231 q 117 227 147 210 q 76 276 86 243 q 82 340 66 309 q 132 380 99 370 q 196 374 165 391 q 237 325 227 358 q 230 261 247 292 m 238 685 q 242 668 238 685 q 227 621 245 651 q 175 584 209 591 q 112 594 142 576 q 74 646 82 612 q 85 709 66 679 q 137 747 103 739 q 200 736 170 755 q 238 685 230 718 z "},";":{"ha":316,"x_min":69,"x_max":248,"o":"m 218 605 q 206 593 218 605 q 159 581 193 581 q 100 605 124 581 q 75 665 75 630 q 100 724 75 699 q 159 748 124 748 q 218 724 193 748 q 243 665 243 699 q 218 605 243 630 m 180 381 q 231 343 213 372 q 240 281 248 314 l 240 279 q 211 219 231 245 q 166 182 190 193 q 118 169 142 172 q 75 176 93 165 q 127 184 95 167 q 150 211 153 199 q 138 219 149 216 q 87 258 104 228 q 78 321 69 288 q 116 372 87 355 q 180 381 146 390 z "},"<":{"ha":550,"x_min":68,"x_max":479,"o":"m 479 732 l 479 713 l 85 483 l 479 252 l 479 183 l 68 422 l 68 492 l 479 732 z "},"=":{"ha":519,"x_min":58,"x_max":460,"o":"m 460 368 l 58 368 l 58 438 l 460 438 l 460 368 m 460 511 l 58 511 l 58 581 l 460 581 l 460 511 z "},">":{"ha":550,"x_min":69,"x_max":481,"o":"m 69 732 l 481 492 l 481 422 l 69 183 l 69 252 l 465 483 l 69 713 l 69 732 z "},"?":{"ha":780,"x_min":74,"x_max":704,"o":"m 389 995 q 614 924 525 995 q 704 732 704 854 q 684 612 704 666 q 630 521 663 558 q 558 452 597 484 q 479 392 519 420 q 407 334 440 363 q 354 264 374 304 q 334 176 334 224 l 315 176 q 327 273 315 229 q 359 350 339 318 q 402 413 378 382 q 449 475 425 444 q 492 541 473 506 q 524 625 512 576 q 536 732 536 673 q 389 976 536 976 q 345 969 363 976 q 307 943 326 962 q 274 887 288 924 q 252 794 260 850 q 369 543 238 599 l 369 537 l 74 602 q 98 787 74 709 q 166 909 122 865 q 265 974 210 954 q 389 995 320 995 m 401 22 q 395 6 401 22 q 356 -23 388 -9 q 292 -23 324 -37 q 247 22 260 -10 q 247 86 233 54 q 292 132 260 119 q 356 131 324 144 q 401 86 388 118 q 401 22 414 54 z "},"@":{"ha":1103,"x_min":85,"x_max":1019,"o":"m 314 925 q 367 960 314 925 q 552 994 421 994 q 790 925 683 994 q 959 739 898 857 q 1019 482 1019 622 q 978 327 1019 393 q 865 260 937 260 q 619 404 660 260 q 491 272 591 272 q 354 297 414 272 q 257 377 294 322 q 219 511 219 432 q 244 644 219 585 q 311 736 269 702 q 403 789 353 771 q 507 806 453 806 q 630 793 538 806 q 776 781 722 781 l 833 781 l 833 774 q 776 631 776 746 l 776 489 q 800 333 776 387 q 865 279 823 279 q 926 299 899 279 q 969 351 954 319 q 992 416 985 382 q 1000 482 1000 450 q 942 729 1000 616 q 781 908 884 842 q 552 974 677 974 q 323 908 427 974 q 162 729 220 842 q 104 482 104 616 q 162 235 104 348 q 323 57 220 123 q 552 -9 427 -9 q 815 78 696 -9 q 852 82 827 77 q 552 -30 721 -30 q 314 39 421 -30 q 145 225 206 108 q 85 482 85 342 q 145 739 85 622 q 314 925 206 857 m 608 502 l 608 775 q 507 787 528 787 q 416 724 446 787 q 387 511 387 661 q 491 291 387 291 q 577 351 547 291 q 608 502 608 412 z "},"A":{"ha":915,"x_min":1,"x_max":908,"o":"m 282 6 l 282 0 l 1 0 l 1 6 q 25 15 4 7 q 66 32 46 22 q 110 57 85 41 q 153 96 134 72 q 180 149 172 120 l 409 888 l 385 965 l 553 965 l 805 149 q 908 6 838 41 l 908 0 l 852 0 l 628 0 l 628 6 q 638 149 675 30 l 589 307 l 248 307 l 199 149 q 193 114 194 131 q 196 86 193 98 q 206 62 199 74 q 220 44 214 51 q 238 30 227 37 q 255 19 249 22 q 271 12 260 16 q 282 6 281 7 m 418 857 l 254 326 l 583 326 l 418 857 z "},"B":{"ha":1022,"x_min":36,"x_max":980,"o":"m 303 140 l 303 0 l 36 0 l 36 6 q 111 40 86 6 q 136 149 136 73 l 136 816 q 111 926 136 892 q 36 960 85 960 l 36 965 l 136 965 q 315 980 191 965 q 516 995 439 995 q 863 776 863 995 q 854 716 863 744 q 834 670 845 689 q 798 632 824 651 q 756 602 771 612 q 703 577 741 592 q 649 557 664 562 q 589 538 635 552 q 570 532 576 534 q 682 524 626 533 q 792 492 739 514 q 888 437 846 470 q 955 356 929 405 q 980 248 980 307 q 956 144 980 193 q 883 56 931 95 q 757 -7 836 16 q 579 -30 679 -30 q 407 16 480 -30 q 303 140 334 62 m 303 960 l 303 382 q 350 449 319 420 q 417 497 381 478 q 492 534 452 516 q 567 571 531 551 q 632 615 603 591 q 679 678 661 640 q 696 766 696 716 q 639 913 696 854 q 479 972 583 972 q 303 960 401 972 m 303 281 l 303 243 q 382 63 303 136 q 574 -11 462 -11 q 686 13 637 -11 q 760 74 734 37 q 800 151 787 111 q 812 229 812 190 q 786 346 812 290 q 717 441 760 402 q 616 499 674 480 q 498 507 558 518 q 422 473 454 491 q 361 429 390 455 q 318 366 333 403 q 303 281 303 328 z "},"C":{"ha":882,"x_min":57,"x_max":844,"o":"m 491 -30 q 307 11 390 -30 q 170 121 224 51 q 86 283 116 191 q 57 483 57 376 q 114 740 57 622 q 270 926 172 858 q 484 995 368 995 q 567 987 519 995 q 652 970 614 979 q 724 955 690 962 q 777 950 758 948 q 796 965 796 951 l 802 965 l 802 718 l 796 718 q 782 780 796 746 q 740 848 768 813 q 675 911 712 882 q 588 958 639 940 q 484 976 538 976 q 353 910 413 976 q 259 731 294 844 q 224 483 224 617 q 269 243 224 350 q 390 79 314 137 q 557 21 466 21 q 712 69 640 21 q 829 189 785 117 l 844 180 q 702 33 798 95 q 491 -30 607 -30 z "},"D":{"ha":1046,"x_min":36,"x_max":990,"o":"m 136 816 q 111 926 136 892 q 36 960 85 960 l 36 965 l 136 965 q 339 980 192 965 q 564 995 486 995 q 729 954 650 995 q 865 845 808 913 q 956 682 922 777 q 990 482 990 587 q 933 225 990 343 q 778 39 876 107 q 564 -30 680 -30 q 399 14 467 -30 q 303 134 332 58 l 303 0 l 36 0 l 36 5 q 111 39 85 5 q 136 149 136 73 l 136 816 m 303 958 l 303 243 q 376 62 303 134 q 559 -11 448 -11 q 704 56 643 -11 q 793 233 764 123 q 823 482 823 343 q 788 730 823 616 q 694 910 753 844 q 564 976 634 976 q 303 958 487 976 z "},"E":{"ha":826,"x_min":57,"x_max":775,"o":"m 775 224 l 775 0 l 57 0 l 57 5 q 113 149 113 34 l 113 816 q 57 960 113 932 l 57 965 l 735 965 l 735 741 l 730 741 q 708 814 723 779 q 668 879 693 848 q 605 928 644 909 q 521 946 567 946 l 281 946 l 281 443 q 316 498 294 475 q 364 534 338 522 q 409 553 390 547 q 448 562 428 559 q 514 575 485 567 q 574 598 544 584 q 627 636 604 612 q 667 692 650 660 l 673 692 q 548 356 585 454 l 542 356 q 559 472 568 429 q 520 532 549 515 q 448 543 491 548 q 418 537 433 541 q 377 520 404 533 q 330 489 350 507 q 296 435 311 470 q 281 355 281 400 l 281 19 l 561 19 q 645 37 607 19 q 708 86 684 56 q 748 151 733 117 q 770 224 763 186 l 775 224 z "},"F":{"ha":761,"x_min":57,"x_max":728,"o":"m 337 6 l 337 0 l 57 0 l 57 5 q 113 149 113 34 l 113 816 q 57 960 113 932 l 57 965 l 728 965 l 728 741 l 722 741 q 701 814 715 779 q 661 879 686 848 q 598 928 636 909 q 513 946 559 946 l 281 946 l 281 444 q 316 498 294 475 q 364 534 338 522 q 409 553 390 547 q 448 562 428 559 q 514 575 485 567 q 574 598 544 584 q 627 636 604 612 q 667 692 650 660 l 672 692 q 547 356 584 454 l 542 356 q 559 472 568 429 q 520 532 549 515 q 448 543 491 548 q 430 539 439 541 q 403 532 420 538 q 372 518 386 526 q 340 497 357 511 q 312 466 323 483 q 291 423 300 449 q 281 367 282 397 l 281 149 q 337 6 281 34 z "},"G":{"ha":954,"x_min":57,"x_max":913,"o":"m 491 -30 q 307 11 390 -30 q 170 121 224 51 q 86 283 116 191 q 57 483 57 376 q 114 740 57 622 q 270 926 172 858 q 484 995 368 995 q 567 987 519 995 q 652 970 614 979 q 724 955 690 962 q 777 950 758 948 q 796 965 796 951 l 802 965 l 802 718 l 796 718 q 782 780 796 746 q 740 848 768 813 q 675 911 712 882 q 588 958 639 940 q 484 976 538 976 q 353 910 413 976 q 259 731 294 844 q 224 483 224 617 q 269 243 224 350 q 390 79 314 137 q 557 21 466 21 q 690 56 626 21 l 690 333 q 680 397 690 370 q 653 441 670 425 q 621 465 636 456 q 589 477 606 473 l 589 482 l 857 482 l 857 149 q 913 5 857 34 l 913 0 l 763 0 l 705 36 q 491 -30 602 -30 z "},"H":{"ha":1017,"x_min":57,"x_max":960,"o":"m 337 0 l 57 0 l 57 5 q 113 149 113 34 l 113 816 q 57 960 113 932 l 57 965 l 337 965 l 337 960 q 281 816 281 932 l 281 492 l 735 492 l 735 816 q 679 960 735 932 l 679 965 l 960 965 l 960 960 q 903 816 903 931 l 903 149 q 960 5 903 34 l 960 0 l 679 0 l 679 5 q 735 149 735 34 l 735 473 l 281 473 l 281 149 q 337 5 281 34 l 337 0 z "},"I":{"ha":394,"x_min":57,"x_max":337,"o":"m 337 0 l 57 0 l 57 5 q 113 149 113 34 l 113 816 q 57 960 113 932 l 57 965 l 337 965 l 337 960 q 281 816 281 932 l 281 149 q 337 5 281 34 l 337 0 z "},"J":{"ha":394,"x_min":-29,"x_max":343,"o":"m 286 226 q 268 100 286 150 q 210 22 250 51 q 113 -18 170 -7 q -29 -30 56 -30 l -29 -23 q 80 34 41 -23 q 119 226 119 90 l 119 816 q 62 960 119 932 l 62 965 l 343 965 l 343 960 q 286 816 286 931 l 286 226 z "},"K":{"ha":851,"x_min":57,"x_max":838,"o":"m 838 960 q 725 917 795 958 q 618 816 654 876 l 457 545 l 693 149 q 749 75 717 109 q 802 27 782 41 q 838 5 822 14 l 838 0 l 558 0 l 558 5 q 526 149 600 26 l 374 404 l 281 249 l 281 149 q 337 5 281 34 l 337 0 l 57 0 l 57 5 q 113 149 113 34 l 113 816 q 57 960 113 932 l 57 965 l 337 965 l 337 960 q 281 816 281 932 l 281 281 l 600 816 q 617 864 614 841 q 615 902 621 887 q 598 930 610 917 q 577 949 586 943 q 558 960 568 955 l 558 965 l 708 965 l 838 965 l 838 960 z "},"L":{"ha":672,"x_min":57,"x_max":646,"o":"m 646 0 l 57 0 l 57 5 q 113 149 113 34 l 113 816 q 57 960 113 932 l 57 965 l 337 965 l 337 960 q 281 816 281 932 l 281 19 l 431 19 q 516 37 477 19 q 579 86 554 56 q 618 151 604 117 q 640 224 633 186 l 646 224 l 646 0 z "},"M":{"ha":1242,"x_min":25,"x_max":1185,"o":"m 305 0 l 25 0 l 25 6 q 64 14 43 6 q 106 38 85 22 q 141 83 127 54 q 155 149 155 113 l 155 816 q 141 882 155 852 q 106 927 127 911 q 64 951 85 943 q 25 960 43 960 l 25 965 l 244 965 l 645 167 l 1046 965 l 1185 965 l 1185 960 q 1129 816 1129 932 l 1129 149 q 1185 5 1129 34 l 1185 0 l 905 0 l 905 5 q 962 149 962 34 l 962 759 l 581 0 l 562 0 l 175 770 l 175 149 q 189 83 175 113 q 224 38 203 54 q 266 14 245 22 q 305 6 287 6 l 305 0 z "},"N":{"ha":912,"x_min":25,"x_max":889,"o":"m 305 0 l 25 0 l 25 5 q 64 14 43 5 q 106 38 85 22 q 141 83 127 54 q 155 149 155 113 l 155 816 q 141 882 155 852 q 106 927 127 911 q 64 951 85 943 q 25 960 43 960 l 25 965 l 259 965 l 739 170 l 739 816 q 725 882 739 852 q 690 927 711 911 q 648 951 669 943 q 608 960 627 960 l 608 965 l 889 965 l 889 960 q 850 951 871 960 q 807 927 829 943 q 772 882 786 911 q 758 816 758 852 l 758 138 l 842 0 l 675 0 l 175 830 l 175 149 q 189 83 175 113 q 224 38 203 54 q 266 14 245 22 q 305 5 287 5 l 305 0 z "},"O":{"ha":964,"x_min":56,"x_max":908,"o":"m 481 -30 q 268 39 366 -30 q 113 226 170 108 q 56 483 56 344 q 89 682 56 587 q 180 845 123 777 q 316 954 237 913 q 481 995 395 995 q 695 926 597 995 q 851 740 793 858 q 908 483 908 622 q 874 283 908 378 q 783 120 840 189 q 647 11 726 52 q 481 -30 568 -30 m 612 910 q 582 943 612 910 q 481 976 552 976 q 352 910 411 976 q 258 731 292 844 q 223 483 223 617 q 258 235 223 349 q 352 55 292 121 q 481 -11 411 -11 q 612 55 552 -11 q 706 235 671 121 q 741 483 741 349 q 706 731 741 617 q 612 910 671 844 z "},"P":{"ha":891,"x_min":36,"x_max":863,"o":"m 136 965 q 315 980 191 965 q 516 995 439 995 q 863 776 863 995 q 844 688 863 727 q 792 625 825 650 q 718 580 760 600 q 630 546 676 561 q 537 518 583 532 q 448 488 490 505 q 374 450 406 471 q 322 397 342 429 q 303 323 303 365 l 303 149 q 328 39 303 73 q 404 5 353 5 l 404 0 l 36 0 l 36 5 q 111 39 85 5 q 136 149 136 73 l 136 816 q 111 926 136 892 q 36 960 85 960 l 36 965 l 136 965 m 696 766 q 639 913 696 854 q 479 972 583 972 q 303 960 401 972 l 303 404 q 350 458 319 434 q 417 499 381 482 q 492 532 452 515 q 567 569 531 549 q 632 614 603 589 q 679 678 661 639 q 696 766 696 717 z "},"Q":{"ha":965,"x_min":56,"x_max":918,"o":"m 908 483 q 843 210 908 334 q 670 22 778 86 q 727 -24 705 -8 q 778 -55 748 -41 q 835 -70 808 -70 q 916 -41 875 -70 l 918 -45 q 714 -149 815 -153 q 666 -137 688 -147 q 623 -106 644 -127 q 590 -69 603 -86 q 556 -22 576 -52 q 481 -30 519 -30 q 268 39 366 -30 q 113 226 170 108 q 56 483 56 344 q 89 682 56 587 q 180 845 123 777 q 316 954 237 913 q 481 995 395 995 q 695 926 597 995 q 851 740 793 858 q 908 483 908 622 m 481 -11 q 540 1 513 -11 q 507 45 521 28 q 471 81 493 62 q 429 107 450 100 q 379 115 408 115 q 317 102 350 115 q 481 -11 389 -11 m 620 65 q 708 242 675 132 q 741 483 741 353 q 706 731 741 617 q 612 910 671 844 q 481 976 552 976 q 352 910 411 976 q 258 731 292 844 q 223 483 223 617 q 247 276 223 373 q 313 110 271 179 q 432 149 369 149 q 526 127 481 149 q 620 65 570 104 z "},"R":{"ha":957,"x_min":36,"x_max":931,"o":"m 36 5 q 111 39 85 5 q 136 149 136 73 l 136 816 q 111 926 136 892 q 36 960 85 960 l 36 965 l 136 965 q 315 980 191 965 q 516 995 439 995 q 863 776 863 995 q 855 718 863 745 q 834 671 847 691 q 801 633 822 651 q 759 602 780 614 q 709 576 739 589 q 655 555 679 564 q 597 537 631 547 q 680 515 645 536 q 738 457 715 495 q 774 375 760 418 q 797 273 787 332 q 805 218 801 250 q 812 163 809 185 q 820 114 815 140 q 830 71 825 87 q 845 38 836 54 q 866 16 853 23 q 895 8 878 8 q 928 18 911 8 l 931 14 q 804 -30 867 -30 q 760 -22 779 -30 q 727 -4 740 -15 q 703 27 713 7 q 687 65 692 47 q 675 111 681 83 q 667 160 670 139 q 661 214 665 182 q 653 267 656 246 q 632 355 646 316 q 598 425 619 394 q 550 473 577 456 q 485 488 523 489 q 401 467 447 488 q 303 323 303 414 l 303 149 q 328 39 303 73 q 404 5 353 5 l 404 0 l 36 0 l 36 5 m 303 960 l 303 404 q 350 458 319 434 q 417 499 381 482 q 492 532 452 515 q 567 569 531 549 q 632 614 603 589 q 679 678 661 639 q 696 766 696 717 q 639 913 696 854 q 479 972 583 972 q 303 960 401 972 z "},"S":{"ha":831,"x_min":65,"x_max":780,"o":"m 416 -11 q 605 40 532 -11 q 677 174 677 92 q 612 325 677 257 q 412 451 548 392 q 353 476 392 460 q 255 519 286 505 q 178 559 223 533 q 114 607 134 585 q 80 664 95 630 q 65 739 65 697 q 87 827 65 783 q 149 910 110 872 q 249 971 189 947 q 380 995 310 995 q 463 987 416 995 q 549 970 511 979 q 621 955 587 962 q 673 950 654 948 q 692 965 692 951 l 699 965 l 699 718 l 692 718 q 679 780 692 746 q 636 848 665 813 q 572 911 608 882 q 485 958 535 940 q 380 976 434 976 q 220 931 285 976 q 155 825 155 886 q 174 761 155 789 q 249 699 193 734 q 412 618 306 663 q 600 528 527 570 q 712 445 673 486 q 766 364 751 403 q 780 275 780 326 q 676 56 780 142 q 416 -30 572 -30 q 329 -22 380 -30 q 236 -5 278 -14 q 155 10 193 3 q 94 15 116 17 q 71 0 71 14 l 65 0 l 65 248 l 71 248 q 99 169 71 214 q 172 84 127 125 q 283 17 217 44 q 416 -11 349 -11 z "},"T":{"ha":789,"x_min":24,"x_max":765,"o":"m 24 965 l 765 965 l 765 741 l 760 741 q 738 814 753 779 q 698 879 723 848 q 635 928 673 909 q 551 946 597 946 l 478 946 l 478 149 q 534 5 478 34 l 534 0 l 254 0 l 254 5 q 311 149 311 34 l 311 946 l 238 946 q 154 928 192 946 q 91 879 115 909 q 51 814 66 848 q 29 741 36 779 l 24 741 l 24 965 z "},"U":{"ha":883,"x_min":52,"x_max":831,"o":"m 332 960 q 275 816 275 932 l 275 244 q 286 137 275 183 q 315 64 297 92 q 361 19 334 36 q 418 -5 389 1 q 486 -11 448 -11 q 574 -4 536 -11 q 648 19 613 2 q 706 64 684 36 q 742 137 729 92 q 755 244 755 182 l 755 816 q 699 960 755 932 l 699 965 l 831 965 l 831 960 q 774 816 774 931 l 774 244 q 761 133 774 180 q 715 47 747 85 q 626 -10 684 9 q 486 -30 568 -30 q 358 -24 411 -30 q 256 -2 306 -19 q 175 45 205 15 q 126 124 144 75 q 108 244 108 174 l 108 816 q 52 960 108 932 l 52 965 l 332 965 l 332 960 z "},"V":{"ha":868,"x_min":7,"x_max":867,"o":"m 587 965 l 867 965 l 867 960 q 844 951 865 958 q 803 933 823 943 q 759 908 783 924 q 716 869 735 893 q 688 816 697 845 l 483 152 l 530 0 l 362 0 l 110 816 q 7 960 77 925 l 7 965 l 288 965 l 288 960 q 277 816 240 936 l 473 182 l 669 816 q 675 851 675 834 q 673 879 676 867 q 663 903 671 891 q 649 921 655 914 q 631 936 642 928 q 614 946 619 943 q 598 955 608 949 q 587 960 587 960 l 587 965 z "},"W":{"ha":1372,"x_min":7,"x_max":1371,"o":"m 1090 965 l 1371 965 l 1371 960 q 1348 951 1369 958 q 1307 933 1326 943 q 1263 908 1287 924 q 1220 869 1239 893 q 1192 816 1201 845 l 986 152 l 1034 0 l 866 0 l 651 694 l 483 152 l 530 0 l 362 0 l 110 816 q 7 960 77 925 l 7 965 l 64 965 l 288 965 l 288 960 q 277 816 240 936 l 473 182 l 642 726 l 613 816 q 511 960 579 925 l 511 965 l 567 965 l 791 965 l 791 960 q 781 816 743 936 l 977 182 l 1173 816 q 1179 851 1178 834 q 1177 879 1179 867 q 1166 903 1174 891 q 1152 921 1158 914 q 1135 936 1146 928 q 1118 946 1123 943 q 1101 955 1112 949 l 1090 960 l 1090 965 z "},"X":{"ha":873,"x_min":12,"x_max":860,"o":"m 860 960 q 764 920 820 960 q 670 816 707 880 l 497 522 l 716 149 q 772 75 741 108 q 824 27 804 41 q 860 5 844 14 l 860 0 l 580 0 l 580 5 q 549 149 621 26 l 377 441 l 205 149 q 248 5 150 54 l 248 0 l 12 0 l 12 5 q 95 48 39 7 q 186 149 151 90 l 186 149 l 368 458 l 157 816 q 101 890 133 857 q 48 938 68 924 q 12 960 28 951 l 12 965 l 293 965 l 293 960 q 324 816 252 939 l 488 538 l 651 816 q 609 960 707 911 l 609 965 l 860 965 l 860 960 z "},"Y":{"ha":865,"x_min":4,"x_max":865,"o":"m 584 965 l 865 965 l 865 960 q 840 950 861 958 q 797 932 819 943 q 749 907 775 922 q 701 868 724 892 q 666 816 679 844 l 480 395 l 480 149 q 536 5 480 34 l 536 0 l 256 0 l 256 5 q 313 149 313 34 l 313 393 l 127 816 q 4 960 81 922 l 4 965 l 285 965 l 285 960 q 294 816 241 937 l 471 416 l 659 844 q 584 960 686 910 l 584 965 z "},"Z":{"ha":651,"x_min":43,"x_max":606,"o":"m 606 0 l 43 0 l 420 946 l 280 946 q 196 928 234 946 q 133 879 157 909 q 93 814 108 848 q 71 741 78 779 l 65 741 l 65 965 l 595 965 l 218 19 l 391 19 q 476 37 437 19 q 539 86 514 56 q 578 151 564 117 q 600 224 593 186 l 606 224 l 606 0 z "},"[":{"ha":297,"x_min":97,"x_max":208,"o":"m 208 935 q 175 924 183 935 q 167 884 167 914 l 167 81 q 175 41 167 51 q 208 31 183 31 l 208 0 l 97 0 l 97 81 l 97 884 l 97 965 l 208 965 l 208 935 z "},"\\":{"ha":497,"x_min":66,"x_max":429,"o":"m 136 965 l 429 0 l 359 0 l 66 965 l 136 965 z "},"]":{"ha":297,"x_min":89,"x_max":199,"o":"m 89 965 l 199 965 l 199 884 l 199 81 l 199 0 l 89 0 l 89 31 q 121 41 113 31 q 130 81 130 51 l 130 884 q 121 924 130 914 q 89 935 113 935 l 89 965 z "},"^":{"ha":593,"x_min":58,"x_max":534,"o":"m 306 995 l 534 583 l 464 583 l 271 932 l 77 583 l 58 583 l 286 995 l 306 995 z "},"_":{"ha":589,"x_min":43,"x_max":546,"o":"m 546 -30 l 43 -30 l 43 40 l 546 40 l 546 -30 z "},"a":{"ha":753,"x_min":50,"x_max":707,"o":"m 651 149 q 707 5 651 34 l 707 0 l 557 0 l 488 43 q 422 -10 462 9 q 338 -30 382 -30 q 118 23 186 -30 q 50 186 50 76 q 131 366 50 299 q 333 433 212 433 q 484 351 439 433 l 484 482 q 481 553 484 524 q 473 608 479 581 q 454 651 466 635 q 422 675 442 666 q 372 684 401 684 q 314 668 338 683 q 280 630 290 652 q 269 585 271 608 q 277 541 268 561 q 300 511 286 520 l 298 507 l 115 615 q 372 704 194 704 q 584 649 517 704 q 651 482 651 595 l 651 149 m 484 66 l 484 273 q 448 368 484 325 q 352 410 412 410 q 252 349 286 410 q 218 191 218 288 q 251 44 218 100 q 349 -11 283 -11 q 422 9 384 -11 q 484 66 461 30 z "},"b":{"ha":793,"x_min":47,"x_max":728,"o":"m 458 704 q 565 685 519 704 q 642 633 612 666 q 692 554 673 601 q 720 453 712 507 q 728 337 728 400 q 712 194 728 259 q 661 78 695 129 q 571 -1 627 27 q 439 -30 514 -30 q 264 41 330 -30 l 198 0 l 47 0 l 47 5 q 104 149 104 34 l 104 761 q 47 905 104 876 l 47 910 l 271 965 l 271 587 q 344 672 295 640 q 458 704 393 704 m 406 -6 q 483 20 452 -6 q 531 95 514 45 q 554 202 547 144 q 561 337 561 260 q 558 446 561 399 q 545 537 555 493 q 520 610 536 582 q 477 655 504 638 q 414 672 450 672 q 314 620 357 672 q 271 498 271 567 l 271 60 q 334 12 297 30 q 406 -6 370 -6 z "},"c":{"ha":686,"x_min":57,"x_max":651,"o":"m 639 100 l 651 90 q 547 3 610 36 q 410 -30 484 -30 q 219 20 300 -30 q 97 152 138 70 q 57 337 57 235 q 100 522 57 438 q 221 654 142 605 q 397 704 299 704 q 536 661 476 704 q 629 552 596 618 l 414 450 l 411 454 q 457 506 440 468 q 473 584 473 545 q 452 654 473 623 q 395 684 432 684 q 312 638 351 684 q 249 512 273 593 q 224 337 224 432 q 248 177 224 250 q 325 55 272 104 q 451 7 377 7 q 552 30 500 7 q 639 100 604 54 z "},"d":{"ha":776,"x_min":64,"x_max":688,"o":"m 465 910 l 688 965 l 688 0 l 668 0 l 521 46 l 521 87 q 448 2 496 34 q 334 -30 399 -30 q 227 -11 273 -30 q 150 41 180 8 q 100 120 119 73 q 72 221 80 168 q 64 337 64 274 q 80 480 64 415 q 131 596 97 545 q 221 675 165 647 q 353 704 278 704 q 521 640 455 704 l 521 761 q 465 905 521 876 l 465 910 m 521 169 l 521 614 q 458 662 495 644 q 386 680 422 680 q 309 654 340 680 q 261 579 278 628 q 238 472 245 530 q 231 337 231 414 q 234 228 231 275 q 247 137 237 181 q 272 64 256 92 q 315 19 288 36 q 378 2 342 2 q 476 52 433 2 q 521 169 518 102 z "},"e":{"ha":686,"x_min":57,"x_max":651,"o":"m 639 100 l 651 90 q 547 3 610 36 q 410 -30 484 -30 q 219 20 300 -30 q 97 152 138 70 q 57 337 57 235 q 100 522 57 438 q 221 654 142 605 q 397 704 299 704 q 536 661 476 704 q 629 552 596 618 l 414 450 l 224 359 l 224 337 q 248 177 224 250 q 325 55 272 104 q 451 7 377 7 q 552 30 500 7 q 639 100 604 54 m 395 684 q 283 595 333 684 q 226 376 233 506 l 408 463 q 464 536 447 482 q 462 637 480 590 q 395 684 444 684 z "},"f":{"ha":436,"x_min":49,"x_max":642,"o":"m 382 995 q 527 952 460 995 q 642 844 595 909 l 427 741 l 425 745 q 466 798 454 759 q 472 875 478 836 q 441 945 466 914 q 380 976 416 976 q 295 917 317 976 q 273 709 273 858 l 273 671 l 417 671 l 417 652 l 273 652 l 273 149 q 329 6 273 34 l 329 0 l 49 0 l 49 6 q 105 149 105 34 l 105 652 l 49 652 l 49 671 l 105 671 l 105 709 q 118 840 105 788 q 162 928 130 892 q 247 979 193 964 q 382 995 300 995 z "},"g":{"ha":732,"x_min":41,"x_max":703,"o":"m 186 68 q 214 38 186 47 q 288 26 243 28 q 389 24 334 24 q 499 18 444 23 q 600 0 555 12 q 674 -43 646 -13 q 703 -120 703 -74 q 608 -279 703 -216 q 350 -342 514 -342 q 184 -314 267 -342 q 41 -230 102 -286 q 121 -179 54 -222 q 238 -106 189 -136 l 241 -110 q 220 -182 197 -136 q 311 -262 242 -229 q 466 -298 383 -298 q 603 -263 546 -298 q 661 -179 661 -229 q 629 -124 661 -145 q 547 -96 597 -104 q 436 -85 497 -89 q 315 -79 376 -82 q 204 -68 254 -75 q 122 -40 154 -60 q 91 15 91 -19 q 139 95 91 73 q 296 117 186 117 q 457 187 405 117 q 509 420 509 257 q 439 659 509 602 q 431 589 433 628 q 428 511 428 549 q 427 429 427 473 q 427 345 427 385 q 391 236 427 274 q 288 199 355 199 q 199 212 239 199 q 126 252 158 225 q 76 324 94 279 q 58 428 58 369 q 76 536 58 488 q 125 615 95 584 q 196 666 155 646 q 278 695 237 687 q 364 704 320 704 q 427 699 392 704 q 497 853 448 795 q 632 922 545 911 l 661 765 q 578 786 614 783 q 517 779 542 789 q 475 747 492 768 q 449 696 459 727 q 614 609 551 677 q 676 420 676 541 q 586 184 676 264 q 304 103 495 103 q 215 96 244 103 q 186 68 186 89 m 408 345 q 408 512 406 419 q 422 671 410 605 q 364 684 397 684 q 319 677 339 684 q 281 653 299 671 q 251 608 263 636 q 232 534 239 579 q 225 428 225 488 q 233 340 225 378 q 251 282 240 302 q 277 248 262 261 q 304 232 292 235 q 330 228 317 228 q 385 257 362 228 q 408 345 408 286 z "},"h":{"ha":808,"x_min":46,"x_max":764,"o":"m 708 149 q 764 6 708 34 l 764 0 l 484 0 l 484 6 q 541 149 541 34 l 541 417 q 540 478 541 456 q 537 531 540 500 q 530 580 534 562 q 515 617 525 597 q 492 648 506 637 q 459 665 479 658 q 412 672 439 672 q 313 620 356 672 q 270 498 270 567 l 270 149 q 326 6 270 34 l 326 0 l 46 0 l 46 6 q 102 149 102 34 l 102 761 q 46 905 102 876 l 46 910 q 270 965 189 945 l 270 586 q 343 671 294 639 q 458 704 392 704 q 563 689 517 704 q 635 648 608 673 q 679 584 662 623 q 702 506 696 546 q 708 417 708 467 l 708 149 z "},"i":{"ha":378,"x_min":52,"x_max":332,"o":"m 256 841 q 267 827 256 841 q 275 779 278 814 q 244 723 271 745 q 183 704 218 701 q 126 734 149 707 q 108 795 104 761 q 138 852 111 830 q 199 871 165 874 q 256 841 234 867 m 275 149 q 332 6 275 34 l 332 0 l 52 0 l 52 6 q 108 149 108 34 l 108 469 q 52 613 108 585 l 52 618 q 275 674 220 661 l 275 149 z "},"j":{"ha":365,"x_min":-33,"x_max":285,"o":"m 263 840 q 274 827 263 840 q 281 779 285 813 q 251 722 278 744 q 190 704 224 701 q 133 734 155 707 q 115 795 111 761 q 145 852 118 830 q 206 871 172 874 q 263 840 241 867 m 58 613 l 58 618 q 282 674 245 665 l 282 226 q 264 100 282 150 q 206 22 246 51 q 109 -18 165 -7 q -33 -30 52 -30 l -33 -23 q 76 34 37 -23 q 115 226 115 90 l 115 469 q 58 613 115 585 z "},"k":{"ha":734,"x_min":46,"x_max":713,"o":"m 713 668 q 614 623 682 664 q 509 524 546 582 l 409 368 l 549 149 q 632 48 587 88 q 701 6 677 9 l 701 0 l 420 0 l 420 6 q 381 149 460 26 l 326 237 l 270 149 q 326 5 270 34 l 326 0 l 46 0 l 46 5 q 102 149 102 34 l 102 761 q 46 905 102 876 l 46 910 q 153 937 68 916 q 270 965 239 958 l 270 180 l 490 524 q 509 572 507 549 q 506 608 511 595 q 485 635 500 622 q 461 654 470 649 q 439 665 453 659 q 433 668 435 667 l 433 674 l 713 674 l 713 668 z "},"l":{"ha":372,"x_min":46,"x_max":326,"o":"m 270 149 q 326 6 270 34 l 326 0 l 46 0 l 46 6 q 102 149 102 34 l 102 761 q 46 905 102 876 l 46 910 q 156 937 72 916 q 270 965 241 958 l 270 149 z "},"m":{"ha":1246,"x_min":52,"x_max":1202,"o":"m 1145 149 q 1202 6 1145 35 l 1202 0 l 921 0 l 921 6 q 977 149 977 34 l 977 417 q 977 465 977 448 q 976 508 977 482 q 972 549 975 534 q 965 584 970 564 q 955 615 961 604 q 939 638 948 626 q 917 657 929 651 q 887 668 904 663 q 850 672 870 672 q 753 622 795 672 q 707 505 710 572 q 713 417 713 463 l 713 149 q 770 6 713 34 l 770 0 l 490 0 l 490 6 q 546 149 546 34 l 546 417 q 546 465 546 448 q 544 508 545 482 q 541 549 543 534 q 534 584 538 564 q 523 615 530 604 q 507 638 517 626 q 485 657 498 651 q 456 668 473 663 q 418 672 439 672 q 319 620 362 672 q 275 498 275 567 l 275 149 q 332 6 275 34 l 332 0 l 52 0 l 52 6 q 108 149 108 34 l 108 469 q 52 613 108 585 l 52 618 q 160 646 76 625 q 275 674 245 667 l 275 586 q 348 671 299 639 q 463 704 397 704 q 696 555 648 704 q 767 662 714 620 q 895 704 819 704 q 999 689 954 704 q 1072 648 1044 673 q 1116 584 1099 623 q 1139 506 1133 546 q 1145 417 1145 467 l 1145 149 z "},"n":{"ha":814,"x_min":52,"x_max":770,"o":"m 713 149 q 770 6 713 34 l 770 0 l 490 0 l 490 6 q 546 149 546 34 l 546 417 q 546 465 546 448 q 544 508 545 482 q 541 549 543 534 q 534 584 538 564 q 523 615 530 604 q 507 638 517 626 q 485 657 498 651 q 456 668 473 663 q 418 672 439 672 q 319 620 362 672 q 275 498 275 567 l 275 149 q 332 6 275 34 l 332 0 l 52 0 l 52 6 q 108 149 108 34 l 108 469 q 52 613 108 585 l 52 618 q 275 674 220 661 l 275 586 q 348 671 299 639 q 463 704 397 704 q 568 689 523 704 q 640 648 613 673 q 684 584 667 623 q 707 506 701 546 q 713 417 713 467 l 713 149 z "},"o":{"ha":764,"x_min":58,"x_max":705,"o":"m 246 675 q 277 690 246 675 q 382 704 308 704 q 517 675 456 704 q 620 596 579 646 q 683 480 661 547 q 705 337 705 413 q 683 194 705 261 q 620 78 661 127 q 517 -1 579 28 q 382 -30 456 -30 q 246 -1 308 -30 q 144 78 184 28 q 81 194 103 127 q 58 337 58 261 q 81 480 58 413 q 144 596 103 547 q 246 675 184 646 m 300 36 q 318 13 300 36 q 382 -11 336 -11 q 464 36 428 -11 q 519 162 500 83 q 538 337 538 241 q 494 584 538 484 q 382 684 451 684 q 269 584 313 684 q 226 337 226 484 q 245 162 226 241 q 300 36 264 83 z "},"p":{"ha":794,"x_min":49,"x_max":730,"o":"m 460 704 q 567 685 520 704 q 644 633 613 666 q 694 554 674 601 q 722 453 713 507 q 730 337 730 400 q 713 194 730 259 q 663 78 696 129 q 572 -1 629 27 q 441 -30 515 -30 q 273 34 338 -30 l 273 -142 q 329 -286 273 -258 l 329 -292 l 49 -292 l 49 -286 q 105 -142 105 -258 l 105 469 q 49 613 105 585 l 49 618 q 166 648 72 625 q 273 674 260 671 l 273 587 q 346 672 297 640 q 460 704 395 704 m 408 -6 q 484 20 453 -6 q 532 95 515 45 q 555 202 549 144 q 562 337 562 260 q 559 446 562 399 q 547 537 556 493 q 521 610 537 582 q 478 655 505 638 q 415 672 452 672 q 318 622 360 672 q 273 505 275 572 l 273 60 q 335 12 298 31 q 408 -6 372 -6 z "},"q":{"ha":777,"x_min":64,"x_max":746,"o":"m 690 -87 q 746 -231 690 -202 l 746 -237 l 522 -292 l 522 90 q 449 3 498 36 q 334 -30 400 -30 q 227 -11 273 -30 q 150 41 180 8 q 100 120 119 73 q 72 221 80 168 q 64 337 64 274 q 80 480 64 415 q 131 596 97 545 q 221 675 165 647 q 353 704 278 704 q 527 634 460 704 l 690 674 l 690 -87 m 521 176 l 522 176 l 522 613 q 460 661 497 643 q 386 680 422 680 q 309 654 340 680 q 261 579 278 628 q 238 472 245 530 q 231 337 231 414 q 234 228 231 275 q 247 137 237 181 q 272 64 256 92 q 315 19 288 36 q 378 2 342 2 q 478 54 435 2 q 521 176 521 106 z "},"r":{"ha":745,"x_min":52,"x_max":722,"o":"m 463 704 q 624 662 557 704 q 722 552 690 619 l 507 450 l 505 454 q 540 491 529 465 q 547 548 551 517 q 529 606 543 578 q 485 653 515 635 q 418 672 456 672 q 319 620 362 672 q 275 498 275 567 l 275 149 q 332 6 275 34 l 332 0 l 52 0 l 52 6 q 108 149 108 34 l 108 469 q 52 613 108 585 l 52 618 q 162 646 71 623 q 275 674 254 669 l 275 586 q 348 671 299 639 q 463 704 397 704 z "},"s":{"ha":707,"x_min":75,"x_max":649,"o":"m 165 576 q 192 509 165 538 q 261 460 218 479 q 355 423 304 441 q 458 386 407 406 q 553 342 510 366 q 622 280 595 318 q 649 192 649 241 q 632 112 649 151 q 580 42 614 74 q 487 -10 546 9 q 354 -30 429 -30 q 275 -22 318 -30 q 199 -5 231 -14 q 139 10 167 3 q 96 15 111 17 q 81 0 81 14 l 75 0 l 75 248 l 81 248 q 91 186 81 219 q 123 118 100 153 q 176 54 145 83 q 253 7 207 26 q 354 -11 300 -11 q 433 -2 398 -11 q 489 19 469 6 q 523 48 509 32 q 541 79 536 64 q 546 107 546 94 q 520 166 546 140 q 452 210 494 192 q 361 245 411 228 q 260 284 311 263 q 169 331 210 305 q 101 397 127 357 q 75 490 75 438 q 137 643 75 581 q 311 704 199 704 q 391 696 347 704 q 469 680 435 688 q 531 664 502 671 q 576 659 560 657 q 591 674 591 661 l 597 674 l 597 427 l 591 427 q 581 488 591 454 q 547 556 570 522 q 492 620 524 591 q 413 666 460 648 q 311 684 366 684 q 206 659 247 684 q 165 576 165 633 z "},"t":{"ha":558,"x_min":43,"x_max":537,"o":"m 519 94 l 537 85 q 464 2 513 33 q 350 -30 415 -30 q 225 -7 276 -30 q 147 57 174 15 q 110 146 121 98 q 100 256 100 193 l 100 524 q 43 667 100 639 l 43 673 l 100 687 q 155 710 127 694 q 206 749 182 726 q 245 808 230 773 q 260 883 260 843 l 267 883 l 267 674 l 412 674 l 412 654 l 267 654 l 267 256 q 268 209 267 226 q 269 165 268 191 q 272 125 270 140 q 279 90 275 110 q 290 59 283 71 q 306 36 296 48 q 328 17 315 23 q 357 6 340 11 q 395 2 374 2 q 467 27 433 2 q 519 94 500 53 z "},"u":{"ha":811,"x_min":45,"x_max":762,"o":"m 706 205 q 762 61 706 90 l 762 55 l 538 0 l 538 87 q 465 2 514 34 q 351 -30 416 -30 q 226 -7 277 -30 q 149 57 175 15 q 112 146 122 98 q 101 256 101 193 l 101 469 q 45 613 101 585 l 45 618 q 269 674 183 654 l 269 256 q 269 209 269 226 q 270 165 269 191 q 274 125 271 140 q 280 90 276 110 q 291 59 285 71 q 307 36 298 48 q 329 17 317 23 q 359 6 342 11 q 396 2 376 2 q 493 51 450 2 q 538 168 536 100 l 538 469 q 482 613 538 585 l 482 618 q 592 646 505 624 q 706 674 680 667 l 706 205 z "},"v":{"ha":692,"x_min":16,"x_max":678,"o":"m 444 668 l 444 674 l 678 674 l 678 668 q 604 625 646 660 q 538 524 562 589 l 342 0 l 323 0 l 127 524 q 72 627 102 592 q 16 668 42 661 l 16 674 l 296 674 l 296 668 q 274 626 276 658 q 295 524 271 595 l 407 224 l 518 524 q 444 668 552 614 z "},"w":{"ha":1046,"x_min":16,"x_max":1031,"o":"m 798 674 l 1031 674 l 1031 668 q 957 625 999 660 q 891 524 916 589 l 696 0 l 676 0 l 509 448 l 342 0 l 323 0 l 127 524 q 72 627 102 592 q 16 668 42 661 l 16 674 l 296 674 l 296 668 q 274 626 276 658 q 295 524 271 595 l 407 224 l 574 674 l 593 674 l 593 673 l 760 224 l 872 524 q 880 561 879 543 q 877 591 880 578 q 864 616 873 604 q 848 635 854 629 q 828 651 841 642 q 811 661 815 659 q 798 668 807 663 l 798 674 z "},"x":{"ha":765,"x_min":22,"x_max":742,"o":"m 742 668 q 704 655 728 665 q 649 628 681 645 q 585 584 617 611 q 532 524 553 556 l 438 380 l 588 149 q 672 50 628 87 q 742 6 715 13 l 742 0 l 434 0 l 434 6 q 449 12 442 7 q 459 28 455 17 q 462 55 463 39 q 450 95 460 71 q 420 149 440 119 l 335 280 l 250 149 q 231 103 235 125 q 232 65 227 81 q 248 37 237 50 q 268 17 259 24 q 286 5 277 10 l 286 0 l 22 0 l 22 5 q 60 19 37 9 q 115 45 83 28 q 178 90 146 62 q 231 149 210 117 l 326 295 l 176 524 q 93 624 136 586 q 22 668 49 661 l 22 674 l 330 674 l 330 668 q 316 662 322 667 q 305 646 309 657 q 302 619 301 635 q 314 579 304 604 q 344 524 324 554 l 429 394 l 513 524 q 533 570 529 548 q 531 608 536 593 q 515 636 526 623 q 495 656 505 650 q 477 668 486 663 l 477 674 l 742 674 l 742 668 z "},"y":{"ha":692,"x_min":16,"x_max":678,"o":"m 444 674 l 678 674 l 678 668 q 604 625 646 660 q 538 524 562 589 l 342 0 q 309 -84 321 -57 q 277 -153 298 -111 q 235 -213 256 -194 q 183 -254 214 -233 q 110 -283 151 -275 q 16 -292 69 -292 l 16 -68 l 21 -68 q 42 -117 21 -92 q 96 -157 62 -143 q 167 -171 130 -172 q 243 -139 205 -171 q 307 -45 281 -107 q 323 0 323 -1 l 127 524 q 72 627 102 592 q 16 668 42 661 l 16 674 l 296 674 l 296 668 q 274 626 276 658 q 295 524 271 595 l 407 224 l 518 524 q 444 668 552 614 l 444 674 z "},"z":{"ha":598,"x_min":40,"x_max":547,"o":"m 333 19 q 478 61 427 19 q 542 179 529 104 l 547 179 l 547 0 l 40 0 l 370 654 l 294 654 q 149 610 201 654 q 85 490 98 566 l 79 490 l 79 674 l 547 674 l 218 19 l 333 19 z "},"{":{"ha":300,"x_min":94,"x_max":205,"o":"m 205 964 q 182 937 188 964 q 179 863 176 910 q 188 767 182 817 q 199 660 193 718 q 205 566 205 602 q 159 483 205 509 q 205 400 205 457 q 199 306 205 364 q 188 199 193 248 q 179 102 182 149 q 182 28 176 55 q 205 1 188 1 l 205 -30 q 154 -21 177 -30 q 112 13 130 -13 q 94 78 94 38 q 108 246 94 138 q 122 411 122 354 q 94 467 122 467 l 94 498 q 122 554 122 498 q 108 719 122 611 q 94 887 94 827 q 112 952 94 927 q 154 986 130 978 q 205 995 177 995 l 205 964 z "},"|":{"ha":265,"x_min":97,"x_max":167,"o":"m 167 -30 l 97 -30 l 97 995 l 167 995 l 167 -30 z "},"}":{"ha":300,"x_min":94,"x_max":205,"o":"m 205 887 q 191 719 205 827 q 177 554 177 611 q 205 498 177 498 l 205 467 q 177 411 177 467 q 191 246 177 354 q 205 78 205 138 q 187 13 205 38 q 145 -21 169 -13 q 94 -30 122 -30 l 94 1 q 117 28 111 1 q 120 102 123 55 q 111 199 117 149 q 100 306 106 248 q 94 400 94 364 q 140 483 94 457 q 94 566 94 509 q 100 660 94 602 q 111 767 106 718 q 120 863 117 817 q 117 937 123 910 q 94 964 111 964 l 94 995 q 145 986 122 995 q 187 952 169 978 q 205 887 205 927 z "},"~":{"ha":564,"x_min":54,"x_max":509,"o":"m 478 538 l 509 538 q 501 487 509 510 q 467 445 492 463 q 401 427 441 427 q 251 441 339 427 q 124 455 163 455 q 85 427 85 455 l 54 427 q 82 509 54 479 q 153 538 109 538 q 239 532 189 538 q 328 521 290 526 q 403 512 367 515 q 458 515 439 509 q 478 538 478 521 z "}," ":{"ha":472,"x_min":0,"x_max":0,"o":""},"©":{"ha":875,"x_min":79,"x_max":794,"o":"m 469 372 q 550 396 513 372 q 609 457 587 420 l 616 453 q 544 377 593 410 q 436 345 495 345 q 274 420 334 345 q 214 608 214 495 q 278 793 214 716 q 432 869 342 869 q 475 865 450 869 q 518 857 499 861 q 555 849 538 852 q 582 847 572 846 q 592 854 592 848 l 595 854 l 595 728 l 592 728 q 545 814 592 768 q 432 860 498 860 q 338 786 377 860 q 300 608 300 712 q 349 438 300 505 q 469 372 398 372 m 257 917 q 299 941 257 917 q 437 965 340 965 q 616 917 534 965 q 746 787 699 869 q 794 608 794 705 q 746 428 794 511 q 616 298 699 346 q 437 250 534 250 q 257 298 340 250 q 127 428 175 346 q 79 608 79 511 q 127 787 79 705 q 257 917 175 869 m 305 296 q 336 283 305 296 q 437 269 368 269 q 569 296 506 269 q 676 368 631 323 q 748 476 722 413 q 775 608 775 538 q 748 740 775 677 q 676 847 722 802 q 569 919 631 892 q 437 946 506 946 q 305 919 368 946 q 197 847 242 892 q 125 740 152 802 q 98 608 98 677 q 125 476 98 538 q 197 368 152 413 q 305 296 242 323 z "},"­":{"ha":0,"x_min":0,"x_max":0,"o":""},"®":{"ha":667,"x_min":75,"x_max":591,"o":"m 151 919 q 189 957 151 919 q 333 995 227 995 q 515 919 439 995 q 591 736 591 844 q 516 554 591 630 q 333 479 440 479 q 151 554 227 479 q 75 736 75 629 q 151 919 75 844 m 164 568 q 199 533 164 568 q 333 498 234 498 q 502 568 432 498 q 572 736 572 637 q 502 906 572 836 q 333 976 432 976 q 164 906 234 976 q 94 736 94 836 q 164 568 94 637 m 447 596 q 449 594 447 596 q 458 592 452 592 q 469 595 465 592 l 470 593 q 431 581 452 581 q 414 585 421 581 q 402 594 406 589 q 395 610 398 600 q 391 628 392 621 q 388 650 390 635 q 385 671 387 664 q 360 729 379 711 q 309 732 342 747 q 278 688 278 716 l 278 635 q 309 591 278 591 l 309 589 l 197 589 l 197 591 q 227 635 227 591 l 227 838 q 197 882 227 882 l 197 884 l 227 884 q 282 889 244 884 q 343 893 319 893 q 449 826 449 893 q 428 781 449 795 q 368 753 408 766 q 409 732 396 753 q 429 673 422 711 q 432 649 430 665 q 435 626 434 634 q 439 609 437 618 q 447 596 442 600 m 278 713 q 307 739 286 727 q 348 757 328 750 q 382 781 367 764 q 398 823 398 798 q 381 868 398 850 q 332 886 364 886 q 278 882 311 886 l 278 713 z "},"À":{"ha":916,"x_min":1,"x_max":908,"o":"m 805 160 q 908 16 838 51 l 908 11 l 628 11 l 628 16 q 638 160 675 40 l 589 317 l 248 317 l 199 160 q 193 125 194 142 q 195 97 193 109 q 206 73 198 85 q 220 55 214 62 q 238 40 227 47 q 255 30 250 33 q 271 21 260 26 q 282 16 281 16 l 282 11 l 1 11 l 1 16 q 25 25 4 18 q 66 42 46 33 q 110 67 85 52 q 153 107 134 83 q 180 160 172 131 l 409 899 l 385 976 l 553 976 l 805 160 m 254 336 l 583 336 l 418 868 l 254 336 m 519 1006 l 500 1006 l 359 1168 l 423 1211 l 519 1006 z "},"Á":{"ha":916,"x_min":1,"x_max":908,"o":"m 805 160 q 908 16 838 51 l 908 11 l 628 11 l 628 16 q 638 160 675 40 l 589 317 l 248 317 l 199 160 q 193 125 194 142 q 195 97 193 109 q 206 73 198 85 q 220 55 214 62 q 238 40 227 47 q 255 30 250 33 q 271 21 260 26 q 282 16 281 16 l 282 11 l 1 11 l 1 16 q 25 25 4 18 q 66 42 46 33 q 110 67 85 52 q 153 107 134 83 q 180 160 172 131 l 409 899 l 385 976 l 553 976 l 805 160 m 254 336 l 583 336 l 418 868 l 254 336 m 612 1168 l 472 1006 l 453 1006 l 549 1211 l 612 1168 z "},"Â":{"ha":916,"x_min":1,"x_max":908,"o":"m 805 160 q 908 16 838 51 l 908 11 l 628 11 l 628 16 q 638 160 675 40 l 589 317 l 248 317 l 199 160 q 193 125 194 142 q 195 97 193 109 q 206 73 198 85 q 220 55 214 62 q 238 40 227 47 q 255 30 250 33 q 271 21 260 26 q 282 16 281 16 l 282 11 l 1 11 l 1 16 q 25 25 4 18 q 66 42 46 33 q 110 67 85 52 q 153 107 134 83 q 180 160 172 131 l 409 899 l 385 976 l 553 976 l 805 160 m 254 336 l 583 336 l 418 868 l 254 336 m 481 1155 l 391 1006 l 372 1006 l 493 1225 l 512 1225 l 581 1006 l 564 1006 l 481 1155 z "},"Ã":{"ha":916,"x_min":1,"x_max":908,"o":"m 805 160 q 908 16 838 51 l 908 11 l 628 11 l 628 16 q 638 160 675 40 l 589 317 l 248 317 l 199 160 q 193 125 194 142 q 195 97 193 109 q 206 73 198 85 q 220 55 214 62 q 238 40 227 47 q 255 30 250 33 q 271 21 260 26 q 282 16 281 16 l 282 11 l 1 11 l 1 16 q 25 25 4 18 q 66 42 46 33 q 110 67 85 52 q 153 107 134 83 q 180 160 172 131 l 409 899 l 385 976 l 553 976 l 805 160 m 254 336 l 583 336 l 418 868 l 254 336 m 450 1064 q 445 1052 450 1064 q 414 1028 439 1039 q 363 1028 388 1017 q 327 1064 338 1038 q 327 1115 316 1090 q 363 1151 337 1140 q 414 1151 389 1162 q 450 1115 439 1141 q 450 1064 460 1089 m 599 1042 q 589 1033 599 1042 q 552 1023 579 1023 q 505 1042 525 1023 q 486 1089 486 1062 q 505 1136 486 1116 q 552 1156 525 1156 q 599 1136 579 1156 q 618 1089 618 1116 q 599 1042 618 1062 z "},"Ä":{"ha":916,"x_min":1,"x_max":908,"o":"m 805 160 q 853 64 823 102 q 908 16 884 27 l 908 11 l 628 11 l 628 16 q 638 160 675 40 l 589 317 l 248 317 l 199 160 q 193 125 194 142 q 195 97 193 109 q 206 73 198 85 q 220 55 214 62 q 238 40 227 47 q 255 30 250 33 q 271 21 260 26 q 282 16 281 16 l 282 11 l 1 11 l 1 16 q 25 25 4 18 q 66 42 46 33 q 110 67 85 52 q 153 107 134 83 q 180 160 172 131 l 409 899 l 385 976 l 553 976 l 805 160 m 254 336 l 583 336 l 418 868 l 254 336 m 530 1044 q 452 1055 499 1044 q 384 1066 406 1066 q 362 1044 362 1066 l 337 1044 q 360 1110 337 1086 q 418 1134 382 1134 q 495 1123 446 1134 q 568 1112 543 1112 q 593 1134 593 1112 l 618 1134 q 598 1070 618 1097 q 530 1044 578 1044 z "},"Å":{"ha":916,"x_min":1,"x_max":908,"o":"m 805 160 q 908 16 838 51 l 908 11 l 628 11 l 628 16 q 638 160 675 40 l 589 317 l 248 317 l 199 160 q 193 125 194 142 q 195 97 193 109 q 206 73 198 85 q 220 55 214 62 q 238 40 227 47 q 255 30 250 33 q 271 21 260 26 q 282 16 281 16 l 282 11 l 1 11 l 1 16 q 25 25 4 18 q 66 42 46 33 q 110 67 85 52 q 153 107 134 83 q 180 160 172 131 l 409 899 l 385 976 l 553 976 l 805 160 m 254 336 l 583 336 l 418 868 l 254 336 m 539 1035 q 525 1020 539 1035 q 470 1006 511 1006 q 400 1035 429 1006 q 372 1104 372 1063 q 400 1174 372 1145 q 470 1202 429 1202 q 539 1174 511 1202 q 568 1104 568 1145 q 539 1035 568 1063 m 523 1157 q 512 1168 523 1157 q 470 1179 500 1179 q 418 1157 439 1179 q 396 1104 396 1135 q 418 1052 396 1074 q 470 1030 439 1030 q 523 1052 500 1030 q 545 1104 545 1074 q 523 1157 545 1135 z "},"Æ":{"ha":1217,"x_min":1,"x_max":1166,"o":"m 1160 235 l 1166 235 l 1166 11 l 448 11 l 448 16 q 504 160 504 45 l 504 317 l 248 317 l 199 160 q 193 125 194 142 q 195 97 193 109 q 206 73 198 85 q 220 55 214 62 q 238 40 227 47 q 255 30 250 33 q 271 21 260 26 q 282 16 281 16 l 282 11 l 1 11 l 1 16 q 25 25 4 18 q 66 42 46 33 q 110 67 85 52 q 153 107 134 83 q 180 160 172 131 l 433 976 l 1126 976 l 1126 752 l 1120 752 q 1098 825 1113 790 q 1059 890 1083 859 q 996 939 1034 920 q 911 957 958 957 l 671 957 l 671 453 q 699 499 682 479 q 734 532 717 520 q 773 554 752 545 q 809 567 794 563 q 838 572 823 570 q 926 592 889 580 q 1000 632 963 604 q 1057 703 1036 660 l 1063 703 q 938 367 975 465 l 932 367 q 949 483 959 440 q 911 543 940 526 q 838 553 882 559 q 819 550 829 552 q 792 542 810 548 q 760 528 775 536 q 728 505 745 519 q 699 471 711 490 q 679 426 687 453 q 671 366 671 398 l 671 30 l 951 30 q 1035 48 997 30 q 1098 97 1074 66 q 1138 162 1123 127 q 1160 235 1153 197 m 504 336 l 504 826 q 450 968 504 940 l 254 336 l 504 336 z "},"Ç":{"ha":880,"x_min":57,"x_max":844,"o":"m 844 191 q 712 50 800 111 q 516 -18 624 -11 q 518 -39 518 -27 q 497 -80 518 -64 q 441 -102 476 -96 q 536 -195 536 -117 q 503 -262 536 -239 q 423 -285 470 -285 q 341 -254 375 -285 q 308 -159 308 -224 l 403 -138 l 403 -140 q 368 -220 356 -159 q 423 -279 380 -279 q 482 -195 482 -279 q 401 -106 482 -106 l 401 -100 q 453 -85 441 -100 q 465 -39 465 -70 q 463 -18 465 -31 q 291 30 368 -13 q 163 141 214 72 q 84 300 112 210 q 57 493 57 390 q 91 692 57 597 q 182 856 125 787 q 318 965 239 924 q 484 1006 397 1006 q 567 998 519 1006 q 652 981 614 990 q 724 966 690 972 q 777 961 758 959 q 796 976 796 962 l 802 976 l 802 728 l 796 728 q 782 790 796 756 q 740 859 768 824 q 675 922 712 893 q 588 968 639 950 q 484 987 538 987 q 353 921 413 987 q 259 741 294 854 q 224 493 224 627 q 251 306 224 393 q 322 160 277 220 q 428 66 367 100 q 557 32 489 32 q 712 80 640 32 q 829 199 785 128 l 844 191 z "},"È":{"ha":825,"x_min":56,"x_max":774,"o":"m 768 235 l 774 235 l 774 11 l 56 11 l 56 16 q 112 160 112 45 l 112 826 q 56 970 112 941 l 56 976 l 734 976 l 734 752 l 728 752 q 707 825 722 790 q 667 890 692 859 q 604 939 642 920 q 519 957 566 957 l 279 957 l 279 453 q 307 499 290 479 q 342 532 325 520 q 381 554 360 545 q 417 567 402 563 q 446 572 431 570 q 534 592 497 580 q 608 632 571 604 q 665 703 644 660 l 671 703 q 547 367 583 465 l 541 367 q 557 483 567 440 q 519 543 548 526 q 446 553 490 559 q 427 550 437 552 q 400 542 418 548 q 368 528 383 536 q 336 505 353 519 q 307 471 319 490 q 287 426 295 453 q 279 366 279 398 l 279 30 l 559 30 q 644 48 606 30 q 707 97 682 66 q 746 162 731 127 q 768 235 761 197 m 425 1006 l 406 1006 l 266 1168 l 330 1211 l 425 1006 z "},"É":{"ha":825,"x_min":56,"x_max":774,"o":"m 768 235 l 774 235 l 774 11 l 56 11 l 56 16 q 112 160 112 45 l 112 826 q 56 970 112 941 l 56 976 l 734 976 l 734 752 l 728 752 q 707 825 722 790 q 667 890 692 859 q 604 939 642 920 q 519 957 566 957 l 279 957 l 279 453 q 307 499 290 479 q 342 532 325 520 q 381 554 360 545 q 417 567 402 563 q 446 572 431 570 q 534 592 497 580 q 608 632 571 604 q 665 703 644 660 l 671 703 q 547 367 583 465 l 541 367 q 557 483 567 440 q 519 543 548 526 q 446 553 490 559 q 427 550 437 552 q 400 542 418 548 q 368 528 383 536 q 336 505 353 519 q 307 471 319 490 q 287 426 295 453 q 279 366 279 398 l 279 30 l 559 30 q 644 48 606 30 q 707 97 682 66 q 746 162 731 127 q 768 235 761 197 m 574 1168 l 434 1006 l 414 1006 l 511 1211 l 574 1168 z "},"Ê":{"ha":825,"x_min":56,"x_max":774,"o":"m 768 235 l 774 235 l 774 11 l 56 11 l 56 16 q 112 160 112 45 l 112 826 q 56 970 112 941 l 56 976 l 734 976 l 734 752 l 728 752 q 707 825 722 790 q 667 890 692 859 q 604 939 642 920 q 519 957 566 957 l 279 957 l 279 453 q 307 499 290 479 q 342 532 325 520 q 381 554 360 545 q 417 567 402 563 q 446 572 431 570 q 534 592 497 580 q 608 632 571 604 q 665 703 644 660 l 671 703 q 547 367 583 465 l 541 367 q 557 483 567 440 q 519 543 548 526 q 446 553 490 559 q 427 550 437 552 q 400 542 418 548 q 368 528 383 536 q 336 505 353 519 q 307 471 319 490 q 287 426 295 453 q 279 366 279 398 l 279 30 l 559 30 q 644 48 606 30 q 707 97 682 66 q 746 162 731 127 q 768 235 761 197 m 420 1155 l 329 1006 l 310 1006 l 431 1225 l 450 1225 l 519 1006 l 503 1006 l 420 1155 z "},"Ë":{"ha":825,"x_min":56,"x_max":774,"o":"m 768 235 l 774 235 l 774 11 l 56 11 l 56 16 q 112 160 112 45 l 112 826 q 56 970 112 941 l 56 976 l 734 976 l 734 752 l 728 752 q 707 825 722 790 q 667 890 692 859 q 604 939 642 920 q 519 957 566 957 l 279 957 l 279 453 q 307 499 290 479 q 342 532 325 520 q 381 554 360 545 q 417 567 402 563 q 446 572 431 570 q 534 592 497 580 q 608 632 571 604 q 665 703 644 660 l 671 703 q 547 367 583 465 l 541 367 q 557 483 567 440 q 519 543 548 526 q 446 553 490 559 q 427 550 437 552 q 400 542 418 548 q 368 528 383 536 q 336 505 353 519 q 307 471 319 490 q 287 426 295 453 q 279 366 279 398 l 279 30 l 559 30 q 644 48 606 30 q 707 97 682 66 q 746 162 731 127 q 768 235 761 197 m 423 1115 q 428 1102 423 1115 q 422 1064 433 1090 q 387 1028 412 1038 q 336 1028 361 1017 q 299 1064 310 1039 q 300 1115 289 1089 q 336 1151 311 1141 q 387 1151 361 1162 q 423 1115 412 1140 m 590 1079 q 587 1065 590 1079 q 563 1036 585 1052 q 513 1024 541 1019 q 470 1050 486 1028 q 458 1100 454 1073 q 485 1143 463 1126 q 534 1155 507 1159 q 578 1128 562 1150 q 590 1079 594 1105 z "},"Ì":{"ha":391,"x_min":56,"x_max":336,"o":"m 336 970 q 279 826 279 941 l 279 160 q 336 16 279 45 l 336 11 l 56 11 l 56 16 q 112 160 112 45 l 112 826 q 56 970 112 941 l 56 976 l 336 976 l 336 970 m 257 1006 l 238 1006 l 98 1168 l 161 1211 l 257 1006 z "},"Í":{"ha":391,"x_min":56,"x_max":336,"o":"m 336 970 q 279 826 279 941 l 279 160 q 336 16 279 45 l 336 11 l 56 11 l 56 16 q 112 160 112 45 l 112 826 q 56 970 112 941 l 56 976 l 336 976 l 336 970 m 318 1168 l 178 1006 l 159 1006 l 254 1211 l 318 1168 z "},"Î":{"ha":391,"x_min":56,"x_max":336,"o":"m 336 970 q 279 826 279 941 l 279 160 q 336 16 279 45 l 336 11 l 56 11 l 56 16 q 112 160 112 45 l 112 826 q 56 970 112 941 l 56 976 l 336 976 l 336 970 m 201 1155 l 110 1006 l 91 1006 l 212 1225 l 232 1225 l 300 1006 l 283 1006 l 201 1155 z "},"Ï":{"ha":391,"x_min":47,"x_max":343,"o":"m 55 976 l 336 976 l 336 970 q 279 826 279 941 l 279 160 q 336 16 279 45 l 336 11 l 55 11 l 55 16 q 112 160 112 45 l 112 826 q 55 970 112 941 l 55 976 m 113 1023 q 67 1042 86 1023 q 47 1089 47 1061 q 67 1136 47 1117 q 113 1156 86 1156 q 160 1136 141 1156 q 180 1089 180 1116 q 160 1042 180 1062 q 113 1023 141 1023 m 277 1023 q 230 1042 250 1023 q 211 1089 211 1062 q 230 1136 211 1116 q 277 1156 250 1156 q 324 1136 304 1156 q 343 1089 343 1117 q 324 1042 343 1061 q 277 1023 304 1023 z "},"Ð":{"ha":1063,"x_min":43,"x_max":1008,"o":"m 581 1006 q 747 965 668 1006 q 883 856 826 924 q 974 692 940 787 q 1008 493 1008 597 q 950 236 1008 354 q 795 50 893 118 q 581 -19 697 -19 q 417 25 484 -19 q 321 144 349 68 l 321 11 l 54 11 l 54 16 q 128 50 103 16 q 153 160 153 84 l 153 468 l 43 468 l 43 518 l 153 518 l 153 827 q 128 937 153 903 q 54 970 103 970 l 54 976 l 153 976 q 356 991 209 976 q 581 1006 504 1006 m 576 0 q 721 67 661 0 q 811 244 782 134 q 840 493 840 354 q 806 741 840 627 q 711 921 771 854 q 581 987 652 987 q 321 968 511 987 l 321 518 l 459 518 l 459 468 l 321 468 l 321 254 q 393 73 321 145 q 576 0 466 0 z "},"Ñ":{"ha":887,"x_min":24,"x_max":888,"o":"m 520 1044 q 442 1055 489 1044 q 374 1066 395 1066 q 352 1044 352 1066 l 327 1044 q 350 1110 327 1086 q 408 1134 372 1134 q 485 1123 436 1134 q 558 1112 533 1112 q 583 1134 583 1112 l 608 1134 q 588 1070 608 1097 q 520 1044 568 1044 m 888 970 q 848 962 869 970 q 806 937 827 954 q 771 892 785 921 q 757 826 757 863 l 757 149 l 840 11 l 757 11 l 738 11 l 673 11 l 174 840 l 174 160 q 188 94 174 123 q 222 49 201 65 q 264 24 243 33 q 304 16 286 16 l 304 11 l 174 11 l 154 11 l 24 11 l 24 16 q 63 24 42 16 q 105 49 84 33 q 140 94 126 65 q 154 160 154 123 l 154 826 q 140 892 154 863 q 105 937 126 921 q 63 962 84 954 q 24 970 42 970 l 24 976 l 154 976 l 174 976 l 258 976 l 738 180 l 738 826 q 724 892 738 863 q 689 937 710 921 q 646 962 667 954 q 607 970 625 970 l 607 976 l 738 976 l 757 976 l 888 976 l 888 970 z "},"Ò":{"ha":964,"x_min":56,"x_max":908,"o":"m 481 1006 q 647 965 568 1006 q 783 856 726 924 q 874 692 840 787 q 908 493 908 597 q 851 236 908 354 q 695 50 793 118 q 481 -19 597 -19 q 316 22 395 -19 q 180 131 237 62 q 89 294 123 199 q 56 493 56 389 q 113 750 56 632 q 268 937 170 868 q 481 1006 366 1006 m 352 66 q 381 33 352 66 q 481 0 411 0 q 612 66 552 0 q 706 245 671 132 q 741 493 741 359 q 706 741 741 627 q 612 921 671 854 q 481 987 552 987 q 352 921 411 987 q 258 741 292 854 q 223 493 223 627 q 258 245 223 359 q 352 66 292 132 m 494 1055 l 475 1055 l 335 1218 l 399 1261 l 494 1055 z "},"Ó":{"ha":964,"x_min":56,"x_max":908,"o":"m 481 1006 q 647 965 568 1006 q 783 856 726 924 q 874 692 840 787 q 908 493 908 597 q 851 236 908 354 q 695 50 793 118 q 481 -19 597 -19 q 316 22 395 -19 q 180 131 237 62 q 89 294 123 199 q 56 493 56 389 q 113 750 56 632 q 268 937 170 868 q 481 1006 366 1006 m 352 66 q 381 33 352 66 q 481 0 411 0 q 612 66 552 0 q 706 245 671 132 q 741 493 741 359 q 706 741 741 627 q 612 921 671 854 q 481 987 552 987 q 352 921 411 987 q 258 741 292 854 q 223 493 223 627 q 258 245 223 359 q 352 66 292 132 m 655 1218 l 515 1055 l 496 1055 l 591 1261 l 655 1218 z "},"Ô":{"ha":964,"x_min":56,"x_max":908,"o":"m 481 1006 q 647 965 568 1006 q 783 856 726 924 q 874 692 840 787 q 908 493 908 597 q 851 236 908 354 q 695 50 793 118 q 481 -19 597 -19 q 316 22 395 -19 q 180 131 237 62 q 89 294 123 199 q 56 493 56 389 q 113 750 56 632 q 268 937 170 868 q 481 1006 366 1006 m 352 66 q 381 33 352 66 q 481 0 411 0 q 612 66 552 0 q 706 245 671 132 q 741 493 741 359 q 706 741 741 627 q 612 921 671 854 q 481 987 552 987 q 352 921 411 987 q 258 741 292 854 q 223 493 223 627 q 258 245 223 359 q 352 66 292 132 m 504 1204 l 413 1055 l 394 1055 l 515 1275 l 534 1275 l 604 1055 l 587 1055 l 504 1204 z "},"Õ":{"ha":964,"x_min":56,"x_max":908,"o":"m 481 1006 q 647 965 568 1006 q 783 856 726 924 q 874 692 840 787 q 908 493 908 597 q 851 236 908 354 q 695 50 793 118 q 481 -19 597 -19 q 316 22 395 -19 q 180 131 237 62 q 89 294 123 199 q 56 493 56 389 q 113 750 56 632 q 268 937 170 868 q 481 1006 366 1006 m 352 66 q 381 33 352 66 q 481 0 411 0 q 612 66 552 0 q 706 245 671 132 q 741 493 741 359 q 706 741 741 627 q 612 921 671 854 q 481 987 552 987 q 352 921 411 987 q 258 741 292 854 q 223 493 223 627 q 258 245 223 359 q 352 66 292 132 m 469 1103 q 461 1091 469 1103 q 427 1074 454 1080 q 376 1084 399 1069 q 348 1126 353 1099 q 357 1176 342 1153 q 399 1204 372 1199 q 450 1195 427 1210 q 478 1154 473 1181 q 469 1103 484 1126 m 623 1093 q 613 1083 623 1093 q 576 1073 604 1073 q 530 1092 549 1073 q 511 1139 511 1112 q 530 1186 511 1167 q 576 1206 549 1206 q 623 1186 604 1206 q 643 1139 643 1166 q 623 1093 643 1112 z "},"Ö":{"ha":964,"x_min":56,"x_max":908,"o":"m 481 1006 q 647 965 568 1006 q 783 856 726 924 q 874 692 840 787 q 908 493 908 597 q 851 236 908 354 q 695 50 793 118 q 481 -19 597 -19 q 316 22 395 -19 q 180 131 237 62 q 89 294 123 199 q 56 493 56 389 q 113 750 56 632 q 268 937 170 868 q 481 1006 366 1006 m 352 66 q 381 33 352 66 q 481 0 411 0 q 612 66 552 0 q 706 245 671 132 q 741 493 741 359 q 706 741 741 627 q 612 921 671 854 q 481 987 552 987 q 352 921 411 987 q 258 741 292 854 q 223 493 223 627 q 258 245 223 359 q 352 66 292 132 m 553 1093 q 475 1104 522 1093 q 406 1116 428 1116 q 385 1093 385 1116 l 359 1093 q 382 1159 359 1135 q 440 1183 405 1183 q 517 1173 469 1183 q 591 1162 566 1162 q 616 1183 616 1162 l 641 1183 q 621 1120 641 1147 q 553 1093 600 1093 z "},"×":{"ha":469,"x_min":68,"x_max":401,"o":"m 401 610 l 283 493 l 401 376 l 352 327 l 235 444 l 117 327 l 68 376 l 185 493 l 68 610 l 117 660 l 235 543 l 352 660 l 401 610 z "},"Ø":{"ha":966,"x_min":57,"x_max":909,"o":"m 729 911 q 861 730 812 840 q 909 493 909 621 q 876 294 909 389 q 785 131 842 199 q 649 22 728 62 q 484 -19 570 -19 q 255 60 359 -19 l 227 11 l 201 11 l 237 75 q 105 256 154 146 q 57 493 57 366 q 91 692 57 597 q 182 856 125 787 q 318 965 239 924 q 484 1006 397 1006 q 711 926 606 1006 l 739 976 l 765 976 l 729 911 m 224 493 q 289 168 224 307 l 665 843 q 583 949 629 911 q 484 987 536 987 q 353 921 413 987 q 259 741 294 854 q 224 493 224 627 m 484 0 q 613 66 554 0 q 707 245 673 132 q 742 493 742 359 q 677 819 742 679 l 301 143 q 384 38 337 75 q 484 0 431 0 z "},"Ù":{"ha":872,"x_min":46,"x_max":825,"o":"m 694 975 l 825 975 l 825 970 q 769 826 769 941 l 769 254 q 755 143 769 191 q 710 57 742 95 q 621 0 678 20 q 480 -20 563 -20 q 353 -14 406 -20 q 250 8 300 -9 q 170 55 200 25 q 121 135 139 85 q 102 254 102 184 l 102 826 q 46 970 102 941 l 46 975 l 326 975 l 326 970 q 270 826 270 941 l 270 254 q 281 148 270 193 q 310 74 292 102 q 356 29 328 46 q 413 5 383 12 q 480 -1 442 -1 q 569 6 530 -1 q 643 29 608 12 q 701 74 678 46 q 737 147 724 102 q 750 254 750 193 l 750 826 q 694 970 750 941 l 694 975 m 515 1055 l 496 1055 l 356 1218 l 420 1261 l 515 1055 z "},"Ú":{"ha":872,"x_min":46,"x_max":825,"o":"m 694 975 l 825 975 l 825 970 q 769 826 769 941 l 769 254 q 755 143 769 191 q 710 57 742 95 q 621 0 678 20 q 480 -20 563 -20 q 353 -14 406 -20 q 250 8 300 -9 q 170 55 200 25 q 121 135 139 85 q 102 254 102 184 l 102 826 q 46 970 102 941 l 46 975 l 326 975 l 326 970 q 270 826 270 941 l 270 254 q 281 148 270 193 q 310 74 292 102 q 356 29 328 46 q 413 5 383 12 q 480 -1 442 -1 q 569 6 530 -1 q 643 29 608 12 q 701 74 678 46 q 737 147 724 102 q 750 254 750 193 l 750 826 q 694 970 750 941 l 694 975 m 665 1218 l 526 1055 l 506 1055 l 602 1261 l 665 1218 z "},"Û":{"ha":872,"x_min":46,"x_max":825,"o":"m 694 975 l 825 975 l 825 970 q 769 826 769 941 l 769 254 q 755 143 769 191 q 710 57 742 95 q 621 0 678 20 q 480 -20 563 -20 q 353 -14 406 -20 q 250 8 300 -9 q 170 55 200 25 q 121 135 139 85 q 102 254 102 184 l 102 826 q 46 970 102 941 l 46 975 l 326 975 l 326 970 q 270 826 270 941 l 270 254 q 281 148 270 193 q 310 74 292 102 q 356 29 328 46 q 413 5 383 12 q 480 -1 442 -1 q 569 6 530 -1 q 643 29 608 12 q 701 74 678 46 q 737 147 724 102 q 750 254 750 193 l 750 826 q 694 970 750 941 l 694 975 m 512 1204 l 421 1055 l 402 1055 l 524 1275 l 543 1275 l 612 1055 l 595 1055 l 512 1204 z "},"Ü":{"ha":872,"x_min":46,"x_max":825,"o":"m 694 975 l 825 975 l 825 970 q 769 826 769 941 l 769 254 q 755 143 769 191 q 710 57 742 95 q 621 0 678 20 q 480 -20 563 -20 q 353 -14 406 -20 q 250 8 300 -9 q 170 55 200 25 q 121 135 139 85 q 102 254 102 184 l 102 826 q 46 970 102 941 l 46 975 l 326 975 l 326 970 q 270 826 270 941 l 270 254 q 281 148 270 193 q 310 74 292 102 q 356 29 328 46 q 413 5 383 12 q 480 -1 442 -1 q 569 6 530 -1 q 643 29 608 12 q 701 74 678 46 q 737 147 724 102 q 750 254 750 193 l 750 826 q 694 970 750 941 l 694 975 m 486 1093 q 476 1083 486 1093 q 439 1073 467 1073 q 392 1093 411 1073 q 372 1139 372 1112 q 392 1186 372 1166 q 439 1206 411 1206 q 486 1186 467 1206 q 505 1139 505 1166 q 486 1093 505 1112 m 649 1093 q 639 1083 649 1093 q 602 1073 629 1073 q 555 1093 575 1073 q 536 1139 536 1112 q 555 1186 536 1166 q 602 1206 575 1206 q 649 1186 629 1206 q 669 1139 669 1166 q 649 1093 669 1112 z "},"Ý":{"ha":827,"x_min":-11,"x_max":849,"o":"m 569 976 l 849 976 l 849 970 q 824 961 846 968 q 781 943 803 953 q 734 917 760 932 q 686 878 708 902 q 650 826 663 854 l 465 405 l 465 160 q 522 16 465 45 l 522 11 l 241 11 l 241 16 q 298 160 298 45 l 298 404 l 111 826 q 77 890 95 863 q 41 934 59 918 q 12 956 22 949 q -11 970 2 963 l -11 976 l 269 976 l 269 970 q 279 827 226 948 l 455 426 l 644 854 q 569 970 671 920 l 569 976 m 586 1218 l 446 1055 l 427 1055 l 522 1261 l 586 1218 z "},"Þ":{"ha":888,"x_min":56,"x_max":841,"o":"m 477 868 q 615 845 553 868 q 719 784 677 822 q 788 697 760 747 q 829 596 817 648 q 841 493 841 545 q 829 390 841 441 q 788 289 817 338 q 719 202 760 239 q 615 141 677 164 q 477 118 553 118 q 352 150 401 118 q 279 237 302 182 l 279 160 q 336 16 279 45 l 336 11 l 56 11 l 56 16 q 112 160 112 45 l 112 826 q 56 970 112 941 l 56 976 l 336 976 l 336 970 q 279 826 279 941 l 279 749 q 352 836 302 804 q 477 868 401 868 m 448 138 q 547 165 504 138 q 618 241 591 193 q 660 354 646 290 q 673 493 673 418 q 649 673 673 594 q 573 801 625 752 q 448 849 522 849 q 329 793 378 849 q 279 648 280 737 l 279 338 q 329 194 280 250 q 448 138 378 138 z "},"ß":{"ha":977,"x_min":47,"x_max":945,"o":"m 627 331 q 776 313 709 331 q 886 256 843 296 q 929 159 929 216 q 837 28 929 76 q 603 -20 744 -20 q 386 19 463 -20 q 310 125 310 59 l 311 127 l 534 231 l 534 224 q 474 176 493 205 q 461 116 456 146 q 485 59 467 86 q 535 16 503 33 q 603 -1 568 -1 q 714 44 667 -1 q 762 159 762 89 q 720 274 762 236 q 627 312 678 312 q 614 312 623 312 q 577 312 591 312 q 532 313 562 312 q 480 317 502 314 q 431 325 459 320 q 384 338 403 330 q 346 357 364 347 q 319 385 328 368 q 310 421 310 401 q 318 459 310 442 q 340 486 327 475 q 373 504 353 496 q 411 514 393 511 q 453 519 428 517 q 493 520 478 521 q 530 520 508 520 q 557 519 552 519 q 715 585 652 519 q 777 751 777 650 q 496 985 777 985 q 426 979 457 985 q 365 955 394 972 q 315 909 335 937 q 283 835 295 880 q 271 729 271 789 l 271 11 l 47 11 l 47 16 q 104 160 104 45 l 104 730 q 496 1005 104 1005 q 611 1000 558 1005 q 717 985 665 996 q 809 955 769 975 q 880 908 849 936 q 928 841 911 881 q 945 751 945 801 q 893 614 945 671 q 756 528 842 556 q 557 500 669 500 q 497 479 517 500 q 477 421 477 458 q 521 354 477 376 q 627 331 565 331 z "},"à":{"ha":753,"x_min":50,"x_max":707,"o":"m 651 149 q 707 5 651 34 l 707 0 l 557 0 l 488 43 q 422 -10 462 9 q 338 -30 382 -30 q 118 23 186 -30 q 50 186 50 76 q 131 366 50 299 q 333 433 212 433 q 484 351 439 433 l 484 482 q 481 553 484 524 q 473 608 479 581 q 454 651 466 635 q 422 675 442 666 q 372 684 401 684 q 314 668 338 683 q 280 630 290 652 q 269 585 271 608 q 277 541 268 561 q 300 511 286 520 l 298 507 l 115 615 q 372 704 194 704 q 584 649 517 704 q 651 482 651 595 l 651 149 m 484 66 l 484 273 q 448 368 484 325 q 352 410 412 410 q 252 349 286 410 q 218 191 218 288 q 251 44 218 100 q 349 -11 283 -11 q 422 9 384 -11 q 484 66 461 30 m 385 741 l 366 741 l 226 904 l 290 947 l 385 741 z "},"á":{"ha":753,"x_min":50,"x_max":707,"o":"m 651 149 q 707 5 651 34 l 707 0 l 557 0 l 488 43 q 422 -10 462 9 q 338 -30 382 -30 q 118 23 186 -30 q 50 186 50 76 q 131 366 50 299 q 333 433 212 433 q 484 351 439 433 l 484 482 q 481 553 484 524 q 473 608 479 581 q 454 651 466 635 q 422 675 442 666 q 372 684 401 684 q 314 668 338 683 q 280 630 290 652 q 269 585 271 608 q 277 541 268 561 q 300 511 286 520 l 298 507 l 115 615 q 372 704 194 704 q 584 649 517 704 q 651 482 651 595 l 651 149 m 484 66 l 484 273 q 448 368 484 325 q 352 410 412 410 q 252 349 286 410 q 218 191 218 288 q 251 44 218 100 q 349 -11 283 -11 q 422 9 384 -11 q 484 66 461 30 m 530 904 l 390 741 l 371 741 l 467 947 l 530 904 z "},"â":{"ha":753,"x_min":50,"x_max":707,"o":"m 651 149 q 707 5 651 34 l 707 0 l 557 0 l 488 43 q 422 -10 462 9 q 338 -30 382 -30 q 118 23 186 -30 q 50 186 50 76 q 131 366 50 299 q 333 433 212 433 q 484 351 439 433 l 484 482 q 481 553 484 524 q 473 608 479 581 q 454 651 466 635 q 422 675 442 666 q 372 684 401 684 q 314 668 338 683 q 280 630 290 652 q 269 585 271 608 q 277 541 268 561 q 300 511 286 520 l 298 507 l 115 615 q 372 704 194 704 q 584 649 517 704 q 651 482 651 595 l 651 149 m 484 66 l 484 273 q 448 368 484 325 q 352 410 412 410 q 252 349 286 410 q 218 191 218 288 q 251 44 218 100 q 349 -11 283 -11 q 422 9 384 -11 q 484 66 461 30 m 384 890 l 293 741 l 274 741 l 395 961 l 414 961 l 484 741 l 467 741 l 384 890 z "},"ã":{"ha":753,"x_min":50,"x_max":707,"o":"m 651 149 q 707 5 651 34 l 707 0 l 557 0 l 488 43 q 422 -10 462 9 q 338 -30 382 -30 q 118 23 186 -30 q 50 186 50 76 q 131 366 50 299 q 333 433 212 433 q 484 351 439 433 l 484 482 q 481 553 484 524 q 473 608 479 581 q 454 651 466 635 q 422 675 442 666 q 372 684 401 684 q 314 668 338 683 q 280 630 290 652 q 269 585 271 608 q 277 541 268 561 q 300 511 286 520 l 298 507 l 115 615 q 372 704 194 704 q 584 649 517 704 q 651 482 651 595 l 651 149 m 484 66 l 484 273 q 448 368 484 325 q 352 410 412 410 q 252 349 286 410 q 218 191 218 288 q 251 44 218 100 q 349 -11 283 -11 q 422 9 384 -11 q 484 66 461 30 m 305 760 q 256 773 278 756 q 231 817 235 789 q 244 866 228 844 q 289 891 261 888 q 338 878 316 895 q 363 833 359 861 q 350 785 366 806 q 305 760 333 763 m 517 790 q 510 779 517 790 q 475 761 503 767 q 425 769 448 755 q 396 810 402 783 q 404 861 390 838 q 445 890 418 884 q 495 882 472 896 q 525 841 519 867 q 517 790 531 814 z "},"ä":{"ha":753,"x_min":50,"x_max":707,"o":"m 651 149 q 707 5 651 34 l 707 0 l 557 0 l 488 43 q 422 -10 462 9 q 338 -30 382 -30 q 118 23 186 -30 q 50 186 50 76 q 131 366 50 299 q 333 433 212 433 q 484 351 439 433 l 484 482 q 481 553 484 524 q 473 608 479 581 q 454 651 466 635 q 422 675 442 666 q 372 684 401 684 q 314 668 338 683 q 280 630 290 652 q 269 585 271 608 q 277 541 268 561 q 300 511 286 520 l 298 507 l 115 615 q 372 704 194 704 q 584 649 517 704 q 651 482 651 595 l 651 149 m 484 66 l 484 273 q 448 368 484 325 q 352 410 412 410 q 252 349 286 410 q 218 191 218 288 q 251 44 218 100 q 349 -11 283 -11 q 422 9 384 -11 q 484 66 461 30 m 431 779 q 353 790 400 779 q 285 802 307 802 q 263 779 263 802 l 238 779 q 261 845 238 821 q 319 869 283 869 q 396 859 348 869 q 470 848 445 848 q 494 869 494 848 l 519 869 q 499 806 519 833 q 431 779 479 779 z "},"å":{"ha":753,"x_min":50,"x_max":707,"o":"m 651 149 q 707 5 651 34 l 707 0 l 557 0 l 488 43 q 422 -10 462 9 q 338 -30 382 -30 q 118 23 186 -30 q 50 186 50 76 q 131 366 50 299 q 333 433 212 433 q 484 351 439 433 l 484 482 q 481 553 484 524 q 473 608 479 581 q 454 651 466 635 q 422 675 442 666 q 372 684 401 684 q 314 668 338 683 q 280 630 290 652 q 269 585 271 608 q 277 541 268 561 q 300 511 286 520 l 298 507 l 115 615 q 372 704 194 704 q 584 649 517 704 q 651 482 651 595 l 651 149 m 484 66 l 484 273 q 448 368 484 325 q 352 410 412 410 q 252 349 286 410 q 218 191 218 288 q 251 44 218 100 q 349 -11 283 -11 q 422 9 384 -11 q 484 66 461 30 m 435 770 q 420 756 435 770 q 365 741 406 741 q 295 770 324 741 q 267 840 267 800 q 295 910 267 881 q 365 939 324 939 q 435 910 406 939 q 464 840 464 881 q 435 770 464 800 m 417 892 q 406 903 417 892 q 365 914 395 914 q 313 892 334 914 q 291 840 291 871 q 313 788 291 810 q 365 766 334 766 q 417 788 395 766 q 439 840 439 810 q 417 892 439 871 z "},"æ":{"ha":1112,"x_min":50,"x_max":1078,"o":"m 1065 100 l 1078 90 q 974 3 1036 36 q 837 -30 911 -30 q 668 7 741 -30 q 549 111 595 44 l 488 43 q 338 -30 418 -30 q 118 23 186 -30 q 50 186 50 76 q 131 366 50 299 q 333 433 212 433 q 484 351 439 433 l 484 482 q 481 553 484 524 q 473 608 479 581 q 454 651 466 635 q 422 675 442 666 q 372 684 401 684 q 314 668 338 683 q 280 630 290 652 q 269 585 271 608 q 277 541 268 561 q 300 511 286 520 l 298 507 l 115 615 q 372 704 194 704 q 608 625 543 704 q 824 703 699 703 q 963 661 903 703 q 1055 552 1023 618 l 840 450 l 652 359 q 651 348 652 355 q 651 337 651 340 q 675 177 651 250 q 751 55 699 104 q 878 7 804 7 q 979 30 927 7 q 1065 100 1030 54 m 822 684 q 710 595 760 684 q 652 376 660 506 l 835 463 q 875 500 859 474 q 895 558 891 527 q 895 617 899 589 q 870 665 890 646 q 822 684 851 684 m 484 66 l 484 273 q 448 368 484 325 q 352 410 412 410 q 252 349 286 410 q 218 191 218 288 q 251 44 218 100 q 349 -11 283 -11 q 422 9 384 -11 q 484 66 461 30 z "},"ç":{"ha":686,"x_min":57,"x_max":651,"o":"m 651 90 q 567 15 617 45 q 458 -26 517 -16 q 462 -51 462 -37 q 440 -92 462 -76 q 385 -115 419 -109 q 479 -208 479 -130 q 446 -274 479 -252 q 366 -297 413 -297 q 285 -267 318 -297 q 252 -171 252 -236 l 347 -150 l 347 -152 q 311 -233 300 -172 q 366 -291 324 -291 q 425 -208 425 -291 q 345 -118 425 -118 l 345 -112 q 396 -97 385 -112 q 408 -51 408 -82 q 406 -30 408 -43 q 217 21 298 -29 q 97 153 137 71 q 57 337 57 235 q 100 522 57 438 q 221 654 142 605 q 397 703 299 703 q 536 661 476 703 q 629 552 596 618 l 414 450 l 411 454 q 457 506 440 468 q 473 584 473 545 q 452 654 473 623 q 395 684 432 684 q 312 638 351 684 q 249 512 273 593 q 224 337 224 432 q 248 177 224 250 q 325 55 272 104 q 451 7 377 7 q 552 30 500 7 q 639 100 604 54 l 651 90 z "},"è":{"ha":686,"x_min":57,"x_max":651,"o":"m 639 100 l 651 90 q 547 3 610 36 q 410 -30 484 -30 q 219 20 300 -30 q 97 152 138 70 q 57 337 57 235 q 100 522 57 438 q 221 654 142 605 q 397 703 299 703 q 536 661 476 703 q 629 552 596 618 l 414 450 l 224 359 l 224 337 q 248 177 224 250 q 325 55 272 104 q 451 7 377 7 q 552 30 500 7 q 639 100 604 54 m 395 684 q 283 595 333 684 q 226 376 233 506 l 408 463 q 464 536 447 482 q 462 637 480 590 q 395 684 444 684 m 401 741 l 382 741 l 241 904 l 305 947 l 401 741 z "},"é":{"ha":686,"x_min":57,"x_max":651,"o":"m 639 100 l 651 90 q 547 3 610 36 q 410 -30 484 -30 q 219 20 300 -30 q 97 152 138 70 q 57 337 57 235 q 100 522 57 438 q 221 654 142 605 q 397 703 299 703 q 536 661 476 703 q 629 552 596 618 l 414 450 l 224 359 l 224 337 q 248 177 224 250 q 325 55 272 104 q 451 7 377 7 q 552 30 500 7 q 639 100 604 54 m 395 684 q 283 595 333 684 q 226 376 233 506 l 408 463 q 464 536 447 482 q 462 637 480 590 q 395 684 444 684 m 551 904 l 410 741 l 391 741 l 487 947 l 551 904 z "},"ê":{"ha":686,"x_min":57,"x_max":651,"o":"m 639 100 l 651 90 q 547 3 610 36 q 410 -30 484 -30 q 219 20 300 -30 q 97 152 138 70 q 57 337 57 235 q 100 522 57 438 q 221 654 142 605 q 397 703 299 703 q 536 661 476 703 q 629 552 596 618 l 414 450 l 224 359 l 224 337 q 248 177 224 250 q 325 55 272 104 q 451 7 377 7 q 552 30 500 7 q 639 100 604 54 m 395 684 q 283 595 333 684 q 226 376 233 506 l 408 463 q 464 536 447 482 q 462 637 480 590 q 395 684 444 684 m 395 890 l 304 741 l 286 741 l 407 961 l 426 961 l 495 741 l 478 741 l 395 890 z "},"ë":{"ha":686,"x_min":57,"x_max":651,"o":"m 639 100 l 651 90 q 547 3 610 36 q 410 -30 484 -30 q 219 20 300 -30 q 97 152 138 70 q 57 337 57 235 q 100 522 57 438 q 221 654 142 605 q 397 703 299 703 q 536 661 476 703 q 629 552 596 618 l 414 450 l 224 359 l 224 337 q 248 177 224 250 q 325 55 272 104 q 451 7 377 7 q 552 30 500 7 q 639 100 604 54 m 395 684 q 283 595 333 684 q 226 376 233 506 l 408 463 q 464 536 447 482 q 462 637 480 590 q 395 684 444 684 m 362 797 q 357 785 362 797 q 325 763 351 772 q 274 765 299 753 q 240 803 249 777 q 243 853 231 829 q 281 888 255 878 q 331 885 307 897 q 366 847 356 873 q 362 797 374 821 m 513 778 q 504 769 513 778 q 467 759 494 759 q 420 778 439 759 q 400 825 400 798 q 420 872 400 853 q 467 892 439 892 q 513 872 494 892 q 533 825 533 853 q 513 778 533 798 z "},"ì":{"ha":380,"x_min":50,"x_max":330,"o":"m 330 668 q 274 524 274 640 l 274 149 q 330 5 274 34 l 330 0 l 50 0 l 50 5 q 106 149 106 34 l 106 524 q 50 668 106 640 l 50 674 l 330 674 l 330 668 m 270 741 l 251 741 l 111 904 l 174 947 l 270 741 z "},"í":{"ha":380,"x_min":50,"x_max":330,"o":"m 330 668 q 274 524 274 640 l 274 149 q 330 5 274 34 l 330 0 l 50 0 l 50 5 q 106 149 106 34 l 106 524 q 50 668 106 640 l 50 674 l 330 674 l 330 668 m 274 904 l 134 741 l 115 741 l 210 947 l 274 904 z "},"î":{"ha":380,"x_min":50,"x_max":330,"o":"m 330 668 q 274 524 274 640 l 274 149 q 330 5 274 34 l 330 0 l 50 0 l 50 5 q 106 149 106 34 l 106 524 q 50 668 106 640 l 50 674 l 330 674 l 330 668 m 195 890 l 104 741 l 85 741 l 207 961 l 226 961 l 295 741 l 278 741 l 195 890 z "},"ï":{"ha":379,"x_min":35,"x_max":342,"o":"m 48 674 l 329 674 l 329 668 q 273 524 273 640 l 273 149 q 329 6 273 34 l 329 0 l 48 0 l 48 6 q 105 149 105 35 l 105 524 q 48 668 105 640 l 48 674 m 170 804 q 165 791 170 804 q 136 766 161 778 q 86 762 112 753 q 47 795 60 771 q 44 846 35 820 q 77 884 52 872 q 127 888 101 897 q 166 854 154 879 q 170 804 178 830 m 292 762 q 242 765 267 753 q 208 803 217 777 q 211 853 199 829 q 248 888 222 878 q 299 885 274 897 q 333 847 323 873 q 330 797 342 821 q 292 762 318 772 z "},"ð":{"ha":769,"x_min":61,"x_max":708,"o":"m 457 876 q 638 672 569 798 q 708 406 708 546 q 681 219 708 304 q 607 82 653 135 q 504 -1 562 28 q 385 -30 446 -30 q 242 1 305 -30 q 140 84 178 32 q 81 200 101 136 q 61 337 61 265 q 70 445 61 395 q 101 544 79 495 q 159 627 124 593 q 252 683 195 662 q 385 704 310 704 q 506 630 456 704 q 397 848 470 765 l 191 748 l 191 773 l 382 865 q 191 947 299 947 l 191 965 q 435 890 318 965 l 591 965 l 591 941 l 457 876 m 385 -11 q 494 81 448 -11 q 541 337 541 173 l 541 351 q 536 427 540 388 q 521 514 532 466 q 494 598 510 562 q 449 660 477 635 q 385 684 420 684 q 315 652 346 684 q 266 567 284 619 q 238 455 248 515 q 229 337 229 396 q 239 203 229 264 q 265 104 249 143 q 302 38 281 65 q 344 0 323 12 q 385 -11 365 -11 z "},"ñ":{"ha":773,"x_min":52,"x_max":729,"o":"m 673 149 q 729 5 673 34 l 729 0 l 448 0 l 448 5 q 505 149 505 34 l 505 524 q 478 648 505 611 q 388 684 452 684 q 311 664 342 684 q 275 604 279 643 l 275 149 q 332 6 275 34 l 332 0 l 52 0 l 52 6 q 108 149 108 34 l 108 469 q 52 613 108 585 l 52 618 l 108 633 l 275 674 l 275 652 q 433 704 316 704 q 606 646 538 704 q 673 475 673 587 l 672 475 l 673 475 l 673 149 m 422 779 q 345 790 391 779 q 276 802 298 802 q 254 779 254 802 l 229 779 q 252 845 229 821 q 310 869 275 869 q 387 859 338 869 q 460 848 435 848 q 486 869 486 848 l 511 869 q 490 806 511 833 q 422 779 470 779 z "},"ò":{"ha":764,"x_min":58,"x_max":705,"o":"m 246 675 q 277 690 246 675 q 382 704 308 704 q 517 675 456 704 q 620 596 579 646 q 683 480 661 547 q 705 337 705 413 q 683 194 705 261 q 620 78 661 127 q 517 -1 579 28 q 382 -30 456 -30 q 246 -1 308 -30 q 144 78 184 28 q 81 194 103 127 q 58 337 58 261 q 81 480 58 413 q 144 596 103 547 q 246 675 184 646 m 300 36 q 318 13 300 36 q 382 -11 336 -11 q 464 36 428 -11 q 519 162 500 83 q 538 337 538 241 q 494 584 538 484 q 382 684 451 684 q 269 584 313 684 q 226 337 226 484 q 245 162 226 241 q 300 36 264 83 m 397 741 l 378 741 l 237 904 l 301 947 l 397 741 z "},"ó":{"ha":764,"x_min":58,"x_max":705,"o":"m 246 675 q 277 690 246 675 q 382 704 308 704 q 517 675 456 704 q 620 596 579 646 q 683 480 661 547 q 705 337 705 413 q 683 194 705 261 q 620 78 661 127 q 517 -1 579 28 q 382 -30 456 -30 q 246 -1 308 -30 q 144 78 184 28 q 81 194 103 127 q 58 337 58 261 q 81 480 58 413 q 144 596 103 547 q 246 675 184 646 m 300 36 q 318 13 300 36 q 382 -11 336 -11 q 464 36 428 -11 q 519 162 500 83 q 538 337 538 241 q 494 584 538 484 q 382 684 451 684 q 269 584 313 684 q 226 337 226 484 q 245 162 226 241 q 300 36 264 83 m 541 904 l 401 741 l 382 741 l 477 947 l 541 904 z "},"ô":{"ha":764,"x_min":58,"x_max":705,"o":"m 246 675 q 277 690 246 675 q 382 704 308 704 q 517 675 456 704 q 620 596 579 646 q 683 480 661 547 q 705 337 705 413 q 683 194 705 261 q 620 78 661 127 q 517 -1 579 28 q 382 -30 456 -30 q 246 -1 308 -30 q 144 78 184 28 q 81 194 103 127 q 58 337 58 261 q 81 480 58 413 q 144 596 103 547 q 246 675 184 646 m 300 36 q 318 13 300 36 q 382 -11 336 -11 q 464 36 428 -11 q 519 162 500 83 q 538 337 538 241 q 494 584 538 484 q 382 684 451 684 q 269 584 313 684 q 226 337 226 484 q 245 162 226 241 q 300 36 264 83 m 387 890 l 296 741 l 277 741 l 399 961 l 418 961 l 487 741 l 470 741 l 387 890 z "},"õ":{"ha":764,"x_min":58,"x_max":705,"o":"m 246 675 q 277 690 246 675 q 382 704 308 704 q 517 675 456 704 q 620 596 579 646 q 683 480 661 547 q 705 337 705 413 q 683 194 705 261 q 620 78 661 127 q 517 -1 579 28 q 382 -30 456 -30 q 246 -1 308 -30 q 144 78 184 28 q 81 194 103 127 q 58 337 58 261 q 81 480 58 413 q 144 596 103 547 q 246 675 184 646 m 300 36 q 318 13 300 36 q 382 -11 336 -11 q 464 36 428 -11 q 519 162 500 83 q 538 337 538 241 q 494 584 538 484 q 382 684 451 684 q 269 584 313 684 q 226 337 226 484 q 245 162 226 241 q 300 36 264 83 m 300 759 q 253 778 273 759 q 234 825 234 798 q 253 872 234 853 q 300 892 273 892 q 347 872 328 892 q 366 825 366 853 q 347 778 366 798 q 300 759 328 759 m 510 778 q 501 769 510 778 q 464 759 491 759 q 417 778 437 759 q 397 825 397 798 q 417 872 397 853 q 464 892 437 892 q 510 872 491 892 q 530 825 530 853 q 510 778 530 798 z "},"ö":{"ha":764,"x_min":58,"x_max":705,"o":"m 246 675 q 277 690 246 675 q 382 704 308 704 q 517 675 456 704 q 620 596 579 646 q 683 480 661 547 q 705 337 705 413 q 683 194 705 261 q 620 78 661 127 q 517 -1 579 28 q 382 -30 456 -30 q 246 -1 308 -30 q 144 78 184 28 q 81 194 103 127 q 58 337 58 261 q 81 480 58 413 q 144 596 103 547 q 246 675 184 646 m 300 36 q 318 13 300 36 q 382 -11 336 -11 q 464 36 428 -11 q 519 162 500 83 q 538 337 538 241 q 494 584 538 484 q 382 684 451 684 q 269 584 313 684 q 226 337 226 484 q 245 162 226 241 q 300 36 264 83 m 450 776 q 372 787 418 776 q 303 798 325 798 q 281 776 281 798 l 256 776 q 279 842 256 818 q 338 866 302 866 q 415 855 366 866 q 488 844 463 844 q 513 866 513 844 l 538 866 q 517 803 538 829 q 450 776 497 776 z "},"÷":{"ha":459,"x_min":64,"x_max":395,"o":"m 395 302 l 64 302 l 64 372 l 395 372 l 395 302 m 170 214 q 182 226 170 214 q 229 239 195 239 q 289 214 264 239 q 313 155 313 189 q 289 96 313 120 q 229 71 264 71 q 170 96 195 71 q 146 155 146 120 q 170 214 146 189 m 289 460 q 276 448 289 460 q 229 435 264 435 q 170 460 195 435 q 146 519 146 484 q 170 578 146 553 q 229 603 195 603 q 289 578 264 603 q 313 519 313 553 q 289 460 313 484 z "},"ø":{"ha":764,"x_min":58,"x_max":705,"o":"m 567 646 q 669 516 633 597 q 705 337 705 435 q 683 194 705 261 q 620 78 661 127 q 517 -1 579 28 q 382 -30 456 -30 q 216 16 289 -30 l 125 -146 l 100 -146 l 197 28 q 94 158 130 76 q 58 337 58 239 q 81 480 58 413 q 144 596 103 547 q 246 675 184 646 q 382 704 308 704 q 548 659 475 704 l 638 819 l 664 819 l 567 646 m 226 337 q 254 130 226 220 l 500 572 q 449 654 479 625 q 382 684 418 684 q 269 584 313 684 q 226 337 226 484 m 382 -11 q 464 36 428 -11 q 519 162 500 83 q 538 337 538 241 q 510 543 538 456 l 264 102 q 315 19 285 50 q 382 -11 345 -11 z "},"ù":{"ha":811,"x_min":45,"x_max":762,"o":"m 706 205 q 762 61 706 90 l 762 55 l 706 41 l 538 0 l 538 87 q 465 2 514 34 q 351 -30 416 -30 q 226 -7 277 -30 q 149 57 175 15 q 112 146 122 98 q 101 256 101 193 l 101 469 q 45 613 101 585 l 45 618 l 101 633 l 269 674 l 269 256 q 269 209 269 226 q 270 165 269 191 q 274 125 271 140 q 280 90 276 110 q 291 59 285 71 q 307 36 298 48 q 329 17 317 23 q 359 6 342 11 q 396 2 376 2 q 493 51 450 2 q 538 168 536 100 l 538 469 q 482 613 538 585 l 482 618 l 538 633 l 706 674 l 706 205 m 409 738 l 390 738 l 250 900 l 313 943 l 409 738 z "},"ú":{"ha":811,"x_min":45,"x_max":762,"o":"m 551 901 l 411 739 l 391 739 l 487 944 l 551 901 m 706 205 q 762 61 706 90 l 762 55 l 538 0 l 538 87 q 465 2 514 34 q 351 -30 416 -30 q 226 -7 277 -30 q 149 57 175 15 q 112 146 122 98 q 101 256 101 193 l 101 469 q 45 613 101 585 l 45 618 l 101 633 l 269 674 l 269 256 q 269 209 269 226 q 270 165 269 191 q 274 125 271 140 q 280 90 276 110 q 291 59 285 71 q 307 36 298 48 q 329 17 317 23 q 359 6 342 11 q 396 2 376 2 q 493 51 450 2 q 538 168 536 100 l 538 469 q 482 613 538 585 l 482 618 l 538 633 l 706 674 l 706 205 z "},"û":{"ha":811,"x_min":45,"x_max":762,"o":"m 706 205 q 762 61 706 90 l 762 55 l 706 41 l 538 0 l 538 87 q 465 2 514 34 q 351 -30 416 -30 q 226 -7 277 -30 q 149 57 175 15 q 112 146 122 98 q 101 256 101 193 l 101 469 q 45 613 101 585 l 45 618 l 101 633 l 269 674 l 269 256 q 269 209 269 226 q 270 165 269 191 q 274 125 271 140 q 280 90 276 110 q 291 59 285 71 q 307 36 298 48 q 329 17 317 23 q 359 6 342 11 q 396 2 376 2 q 493 51 450 2 q 538 168 536 100 l 538 469 q 482 613 538 585 l 482 618 l 538 633 l 706 674 l 706 205 m 403 887 l 312 738 l 292 738 l 414 958 l 433 958 l 503 738 l 486 738 l 403 887 z "},"ü":{"ha":811,"x_min":45,"x_max":762,"o":"m 341 759 q 294 778 313 759 q 275 825 275 798 q 294 872 275 853 q 341 892 313 892 q 388 872 368 892 q 407 825 407 853 q 388 778 407 798 q 341 759 368 759 m 551 778 q 542 769 551 778 q 505 759 532 759 q 458 778 477 759 q 438 825 438 798 q 458 872 438 853 q 505 892 477 892 q 551 872 532 892 q 571 825 571 853 q 551 778 571 798 m 706 205 q 762 61 706 90 l 762 55 l 538 0 l 538 87 q 465 2 514 34 q 351 -30 416 -30 q 226 -7 277 -30 q 149 57 175 15 q 112 146 122 98 q 101 256 101 193 l 101 469 q 45 613 101 585 l 45 618 l 101 633 l 269 674 l 269 256 q 269 209 269 226 q 270 165 269 191 q 274 125 271 140 q 280 90 276 110 q 291 59 285 71 q 307 36 298 48 q 329 17 317 23 q 359 6 342 11 q 396 2 376 2 q 493 51 450 2 q 538 168 536 100 l 538 469 q 482 613 538 585 l 482 618 l 538 633 l 706 674 l 706 205 z "},"ý":{"ha":692,"x_min":16,"x_max":678,"o":"m 444 674 l 678 674 l 678 668 q 604 625 646 660 q 538 524 562 589 l 342 0 q 309 -84 321 -57 q 277 -153 298 -111 q 235 -213 256 -194 q 183 -254 214 -233 q 110 -283 151 -275 q 16 -292 69 -292 l 16 -68 l 21 -68 q 42 -117 21 -92 q 96 -157 62 -143 q 167 -171 130 -172 q 243 -139 205 -171 q 307 -45 281 -107 q 323 0 323 -1 l 127 524 q 72 627 102 592 q 16 668 42 661 l 16 674 l 296 674 l 296 668 q 274 626 276 658 q 295 524 271 595 l 407 224 l 518 524 q 444 668 552 614 l 444 674 m 538 900 l 397 738 l 378 738 l 474 943 l 538 900 z "},"þ":{"ha":743,"x_min":31,"x_max":682,"o":"m 375 674 q 604 582 525 674 q 682 332 682 489 q 604 88 682 176 q 375 0 526 0 q 254 46 294 0 l 254 -1 q 311 -145 254 -117 l 311 -151 l 31 -151 l 31 -145 q 87 -1 87 -117 l 87 665 q 31 809 87 781 l 31 814 l 311 814 l 311 809 q 254 665 254 781 l 254 627 q 375 674 294 674 m 342 19 q 515 332 515 19 q 342 654 515 654 q 289 638 313 654 q 254 593 264 621 l 254 80 q 289 36 264 52 q 342 19 313 19 z "},"ÿ":{"ha":692,"x_min":16,"x_max":678,"o":"m 444 674 l 678 674 l 678 668 q 604 625 646 660 q 538 524 562 589 l 342 0 q 309 -84 321 -57 q 277 -153 298 -111 q 235 -213 256 -194 q 183 -254 214 -233 q 110 -283 151 -275 q 16 -292 69 -292 l 16 -68 l 21 -68 q 42 -117 21 -92 q 96 -157 62 -143 q 167 -171 130 -172 q 243 -139 205 -171 q 307 -45 281 -107 q 323 0 323 -1 l 127 524 q 72 627 102 592 q 16 668 42 661 l 16 674 l 296 674 l 296 668 q 274 626 276 658 q 295 524 271 595 l 407 224 l 518 524 q 444 668 552 614 l 444 674 m 363 775 q 353 765 363 775 q 316 755 343 755 q 269 775 289 755 q 250 822 250 795 q 269 868 250 849 q 316 888 288 888 q 363 868 344 888 q 382 822 382 849 q 363 775 382 795 m 527 775 q 517 765 527 775 q 479 755 507 755 q 432 775 452 755 q 413 822 413 795 q 432 868 413 849 q 479 888 452 888 q 527 868 507 888 q 546 822 546 849 q 527 775 546 795 z "},"Œ":{"ha":1458,"x_min":56,"x_max":1407,"o":"m 1401 235 l 1407 235 l 1407 11 l 688 11 l 688 16 q 736 82 723 33 q 481 -19 624 -19 q 316 22 395 -19 q 180 131 237 62 q 89 294 123 199 q 56 493 56 389 q 113 750 56 632 q 268 937 170 868 q 481 1006 366 1006 q 736 904 623 1006 q 688 970 723 954 l 688 976 l 1367 976 l 1367 752 l 1361 752 q 1339 825 1354 790 q 1300 890 1324 859 q 1237 939 1275 920 q 1152 957 1198 957 l 913 957 l 913 453 q 941 499 923 479 q 976 532 958 520 q 1015 554 994 545 q 1050 567 1036 563 q 1080 572 1065 570 q 1167 592 1131 580 q 1241 632 1204 604 q 1299 703 1278 660 l 1304 703 q 1179 367 1216 465 l 1174 367 q 1191 483 1200 440 q 1152 543 1181 526 q 1080 553 1123 559 q 1061 550 1070 552 q 1034 542 1051 548 q 1001 528 1017 536 q 969 505 986 519 q 940 471 952 490 q 921 426 928 453 q 913 366 913 398 l 913 30 l 1192 30 q 1277 48 1238 30 q 1340 97 1315 66 q 1379 162 1364 127 q 1401 235 1394 197 m 352 66 q 381 33 352 66 q 481 0 411 0 q 612 66 552 0 q 706 245 671 132 q 741 493 741 359 q 706 741 741 627 q 612 921 671 854 q 481 987 552 987 q 352 921 411 987 q 258 741 292 854 q 223 493 223 627 q 258 245 223 359 q 352 66 292 132 z "},"œ":{"ha":1166,"x_min":58,"x_max":1132,"o":"m 1120 100 l 1132 90 q 1028 3 1090 36 q 891 -30 966 -30 q 625 83 722 -30 q 382 -30 534 -30 q 246 -1 308 -30 q 144 78 184 28 q 81 194 103 127 q 58 337 58 261 q 81 480 58 413 q 144 596 103 547 q 246 675 184 646 q 382 704 308 704 q 626 588 535 704 q 737 673 672 643 q 878 703 802 703 q 1017 661 957 703 q 1109 552 1077 618 l 895 450 l 706 359 q 706 348 706 355 q 705 337 705 340 q 729 177 705 250 q 805 55 753 104 q 932 7 858 7 q 1033 30 981 7 q 1120 100 1084 54 m 876 684 q 764 595 814 684 q 707 376 714 506 l 889 463 q 929 500 913 474 q 949 558 945 527 q 949 617 954 589 q 925 665 944 646 q 876 684 905 684 m 300 36 q 318 13 300 36 q 382 -11 336 -11 q 464 36 428 -11 q 519 162 500 83 q 538 337 538 241 q 494 584 538 484 q 382 684 451 684 q 269 584 313 684 q 226 337 226 484 q 245 162 226 241 q 300 36 264 83 z "},"Š":{"ha":833,"x_min":66,"x_max":781,"o":"m 414 629 q 602 538 528 581 q 714 455 675 496 q 767 374 753 413 q 781 286 781 336 q 678 67 781 153 q 417 -19 574 -19 q 330 -11 381 -19 q 237 5 279 -3 q 156 21 195 14 q 95 26 117 28 q 73 11 73 24 l 66 11 l 66 258 l 73 258 q 100 179 73 224 q 173 95 128 135 q 284 27 218 55 q 417 0 350 0 q 606 51 534 0 q 678 185 678 102 q 614 335 678 268 q 414 461 549 402 q 357 486 394 470 q 257 529 289 514 q 180 569 225 543 q 116 617 136 595 q 82 674 97 640 q 66 749 66 708 q 89 838 66 793 q 151 921 111 883 q 251 982 190 958 q 381 1006 311 1006 q 465 998 417 1006 q 550 981 512 990 q 622 966 588 972 q 675 961 656 959 q 694 976 694 962 l 700 976 l 700 728 l 694 728 q 680 790 694 756 q 638 859 666 824 q 573 922 610 893 q 486 968 536 950 q 381 987 435 987 q 221 942 286 987 q 157 836 157 897 q 175 772 157 800 q 251 709 194 744 q 414 629 307 673 m 408 1055 l 389 1055 l 319 1275 l 336 1275 l 419 1126 l 510 1275 l 529 1275 l 408 1055 z "},"š":{"ha":707,"x_min":75,"x_max":649,"o":"m 165 576 q 192 509 165 538 q 261 460 218 479 q 355 423 304 441 q 458 386 407 406 q 553 342 510 366 q 622 280 595 318 q 649 192 649 241 q 632 112 649 151 q 580 42 614 74 q 487 -10 546 9 q 354 -30 429 -30 q 275 -22 318 -30 q 199 -5 231 -14 q 139 10 167 3 q 96 15 111 17 q 81 0 81 14 l 75 0 l 75 248 l 81 248 q 91 186 81 219 q 123 118 100 153 q 176 54 145 83 q 253 7 207 26 q 354 -11 300 -11 q 433 -2 398 -11 q 489 19 469 6 q 523 48 509 32 q 541 79 536 64 q 546 107 546 94 q 520 166 546 140 q 452 210 494 192 q 361 245 411 228 q 260 284 311 263 q 169 331 210 305 q 101 397 127 357 q 75 490 75 438 q 137 643 75 581 q 311 704 199 704 q 391 696 347 704 q 469 680 435 688 q 531 664 502 671 q 576 659 560 657 q 591 674 591 661 l 597 674 l 597 427 l 591 427 q 581 488 591 454 q 547 556 570 522 q 492 620 524 591 q 413 666 460 648 q 311 684 366 684 q 206 659 247 684 q 165 576 165 633 m 355 738 l 336 738 l 267 958 l 284 958 l 367 808 l 458 958 l 477 958 l 355 738 z "},"Ÿ":{"ha":827,"x_min":-11,"x_max":849,"o":"m 569 976 l 849 976 l 849 970 q 824 961 846 968 q 781 943 803 953 q 734 917 760 932 q 686 878 708 902 q 650 826 663 854 l 465 405 l 465 160 q 522 16 465 45 l 522 11 l 241 11 l 241 16 q 298 160 298 45 l 298 404 l 111 826 q 77 890 95 863 q 41 934 59 918 q 12 956 22 949 q -11 970 2 963 l -11 976 l 269 976 l 269 970 q 279 827 226 948 l 455 426 l 644 854 q 569 970 671 920 l 569 976 m 337 1073 q 291 1092 310 1073 q 271 1139 271 1112 q 291 1186 271 1167 q 337 1206 310 1206 q 384 1186 365 1206 q 404 1139 404 1166 q 384 1093 404 1112 q 337 1073 365 1073 m 547 1093 q 537 1083 547 1093 q 500 1073 528 1073 q 454 1092 473 1073 q 435 1139 435 1112 q 454 1186 435 1167 q 500 1206 473 1206 q 547 1186 528 1206 q 567 1139 567 1166 q 547 1093 567 1112 z "},"Ž":{"ha":650,"x_min":41,"x_max":605,"o":"m 599 235 l 605 235 l 605 11 l 41 11 l 419 957 l 279 957 q 194 939 233 957 q 131 890 156 920 q 92 825 106 859 q 70 752 77 790 l 64 752 l 64 976 l 594 976 l 217 30 l 390 30 q 474 48 436 30 q 537 97 513 66 q 577 162 562 127 q 599 235 592 197 m 361 1055 l 342 1055 l 273 1275 l 290 1275 l 373 1126 l 464 1275 l 484 1275 l 361 1055 z "},"ž":{"ha":597,"x_min":39,"x_max":546,"o":"m 332 19 q 476 61 425 19 q 541 179 528 104 l 546 179 l 546 0 l 39 0 l 369 654 l 292 654 q 148 610 199 654 q 83 490 96 566 l 78 490 l 78 674 l 546 674 l 216 19 l 332 19 m 295 738 l 276 738 l 207 958 l 224 958 l 307 808 l 397 958 l 416 958 l 295 738 z "},"":{"ha":1305,"x_min":54,"x_max":1255,"o":"m 975 965 l 1255 965 l 1255 960 q 1198 816 1198 932 l 1198 281 q 1180 158 1198 212 q 1131 69 1162 104 q 1051 12 1099 34 q 947 -20 1003 -11 q 821 -30 891 -30 q 668 5 735 -30 q 505 -30 591 -30 q 336 11 418 -30 q 191 120 253 52 q 92 284 130 189 q 54 483 54 379 q 92 682 54 587 q 191 845 130 777 q 336 954 253 913 q 505 995 418 995 q 831 774 704 995 l 806 774 q 505 976 684 976 q 357 909 422 976 q 257 731 292 843 q 222 483 222 619 q 256 234 222 346 q 355 56 290 123 q 505 -11 420 -11 q 640 21 579 -11 q 521 168 562 73 q 480 383 480 263 q 493 532 480 465 q 528 642 507 598 q 577 714 549 685 q 635 756 606 743 q 694 768 664 768 q 856 676 790 768 q 921 452 921 585 q 859 188 921 302 q 691 16 797 73 q 821 -11 751 -11 q 973 61 915 -11 q 1031 281 1031 132 l 1031 816 q 975 960 1031 932 l 975 965 m 660 33 q 793 208 748 89 q 839 483 839 328 q 800 676 839 602 q 693 751 760 751 q 623 730 656 751 q 562 668 590 710 q 516 553 533 627 q 500 383 500 479 q 542 168 500 257 q 660 33 585 78 z "},"":{"ha":1312,"x_min":57,"x_max":1236,"o":"m 1021 19 q 1106 37 1067 19 q 1169 86 1144 56 q 1208 151 1194 117 q 1230 224 1223 186 l 1236 224 l 1236 0 l 57 0 l 57 5 q 113 149 113 34 l 113 816 q 57 960 113 932 l 57 965 l 337 965 l 337 960 q 281 816 281 932 l 281 19 l 1021 19 m 1230 492 l 1236 492 l 1236 269 l 517 269 l 517 274 q 574 418 574 302 l 574 816 q 517 960 574 931 l 517 965 l 1196 965 l 1196 741 l 1190 741 q 1168 814 1183 779 q 1129 879 1154 848 q 1066 928 1104 909 q 981 946 1027 946 l 742 946 l 742 548 q 869 660 775 636 q 1002 699 973 686 q 1076 768 1048 720 q 1088 790 1082 778 l 1094 790 q 969 454 1006 552 l 964 454 q 981 570 990 527 q 942 629 971 613 q 869 640 913 646 q 847 636 859 639 q 818 623 836 633 q 786 599 800 613 q 759 558 772 585 q 742 498 747 532 l 742 288 l 1021 288 q 1106 306 1067 288 q 1169 355 1144 324 q 1208 420 1194 385 q 1230 492 1223 454 z "},"":{"ha":1322,"x_min":36,"x_max":1265,"o":"m 1265 960 q 1208 816 1208 932 l 1208 409 q 1265 266 1208 294 l 1265 260 l 985 260 l 985 266 q 1041 409 1041 294 l 1041 816 q 985 960 1041 932 l 985 965 l 1265 965 l 1265 960 m 1160 8 q 1203 14 1181 8 q 1234 24 1225 19 l 1237 20 q 1083 -30 1164 -30 q 988 -20 1027 -30 q 902 20 948 -10 q 809 111 856 50 q 708 267 762 171 q 682 312 691 297 q 656 354 673 327 q 629 395 640 381 q 600 428 618 408 q 568 457 582 448 q 533 476 553 466 q 493 486 513 486 q 450 483 474 487 q 401 467 427 479 q 303 323 303 414 l 303 149 q 328 40 303 73 q 404 6 353 6 l 404 0 l 36 0 l 36 6 q 111 40 86 6 q 136 149 136 73 l 136 816 q 111 926 136 892 q 36 960 85 960 l 36 965 l 136 965 q 315 980 191 965 q 516 995 439 995 q 863 776 863 995 q 854 715 863 743 q 832 667 846 688 q 795 628 819 646 q 751 597 771 609 q 696 571 730 585 q 640 550 663 557 q 578 531 616 543 q 635 524 609 531 q 685 500 662 516 q 724 468 707 484 q 761 424 741 452 q 791 378 780 396 q 822 325 802 359 q 852 273 842 290 q 905 192 878 229 q 952 130 931 155 q 997 83 974 104 q 1036 50 1021 62 q 1072 29 1052 38 q 1101 16 1091 20 q 1126 10 1110 12 q 1145 8 1142 8 q 1160 8 1149 8 m 303 404 q 350 458 319 434 q 417 499 381 482 q 492 532 452 515 q 567 569 531 549 q 632 614 603 589 q 679 678 661 639 q 696 766 696 717 q 639 913 696 854 q 479 972 583 972 q 303 960 401 972 l 303 404 z "},"":{"ha":964,"x_min":56,"x_max":908,"o":"m 481 995 q 695 926 597 995 q 851 740 793 858 q 908 483 908 622 q 874 283 908 378 q 783 120 840 189 q 647 11 726 52 q 481 -30 568 -30 q 268 39 366 -30 q 113 226 170 108 q 56 483 56 344 q 89 682 56 587 q 180 845 123 777 q 316 954 237 913 q 481 995 395 995 m 352 55 q 381 22 352 55 q 481 -11 411 -11 q 612 55 552 -11 q 706 235 671 121 q 741 483 741 349 q 706 731 741 617 q 612 910 671 844 q 481 976 552 976 q 352 910 411 976 q 258 731 292 844 q 223 483 223 617 q 258 235 223 349 q 352 55 292 121 m 492 509 q 509 493 494 494 l 656 483 l 509 472 q 492 456 494 471 l 481 309 l 471 456 q 455 472 470 471 l 308 483 l 455 493 q 471 509 470 494 l 481 657 l 492 509 z "},"":{"ha":1691,"x_min":36,"x_max":1640,"o":"m 1396 8 q 1478 16 1437 8 q 1536 33 1520 24 l 1539 29 q 1449 -11 1507 7 q 1319 -30 1390 -30 q 800 267 1002 -30 q 751 331 777 300 q 692 391 724 361 q 626 441 661 420 q 554 474 591 462 q 478 486 518 487 q 401 467 439 484 q 303 323 303 414 l 303 149 q 328 39 303 73 q 404 5 353 5 l 404 0 l 36 0 l 36 5 q 111 39 85 5 q 136 149 136 73 l 136 816 q 111 926 136 892 q 36 960 85 960 l 36 965 l 136 965 q 315 980 191 965 q 516 995 439 995 q 863 776 863 995 q 854 715 863 743 q 832 666 845 687 q 794 627 819 646 q 749 596 770 608 q 694 570 728 584 q 637 549 660 557 q 576 530 614 542 q 676 517 628 532 q 760 478 725 501 q 832 417 795 456 q 892 348 869 378 q 945 273 916 317 q 1007 192 975 229 q 1068 130 1040 155 q 1130 83 1096 104 q 1187 50 1164 62 q 1243 29 1211 38 q 1292 16 1276 20 q 1336 10 1308 12 q 1370 8 1364 8 q 1396 8 1375 8 m 303 404 q 350 458 319 434 q 417 499 381 482 q 492 532 452 515 q 567 569 531 549 q 632 614 603 589 q 679 678 661 639 q 696 766 696 717 q 639 913 696 854 q 479 972 583 972 q 303 960 401 972 l 303 404 m 1473 288 q 1434 263 1473 288 q 1303 237 1395 237 q 1134 288 1212 237 q 1011 427 1057 339 q 966 616 966 514 q 993 763 966 693 q 1065 884 1020 833 q 1173 965 1110 935 q 1303 995 1235 995 q 1434 965 1372 995 q 1542 884 1497 935 q 1614 763 1587 833 q 1640 616 1640 693 q 1595 427 1640 514 q 1473 288 1550 339 m 1389 928 q 1369 952 1389 928 q 1303 976 1350 976 q 1218 928 1257 976 q 1157 797 1179 880 q 1134 616 1134 714 q 1157 436 1134 519 q 1218 305 1179 353 q 1303 257 1257 257 q 1389 305 1350 257 q 1450 436 1428 353 q 1473 616 1473 519 q 1450 797 1473 714 q 1389 928 1428 880 z "},"":{"ha":1848,"x_min":36,"x_max":1791,"o":"m 1785 484 l 1791 484 l 1791 260 l 1073 260 l 1073 266 q 1129 409 1129 294 l 1129 807 q 1073 951 1129 922 l 1073 956 l 1751 956 l 1751 732 l 1746 732 q 1724 805 1739 770 q 1684 870 1709 840 q 1621 919 1659 901 q 1537 937 1583 937 l 1297 937 l 1297 539 q 1424 651 1330 627 q 1557 690 1528 677 q 1631 759 1603 711 q 1643 781 1637 769 l 1649 781 q 1525 445 1561 543 l 1518 445 q 1535 561 1545 518 q 1497 621 1526 604 q 1424 631 1468 637 q 1402 627 1413 630 q 1373 614 1390 624 q 1341 590 1355 604 q 1314 549 1326 576 q 1297 489 1301 523 l 1297 279 l 1576 279 q 1660 297 1622 279 q 1724 346 1699 315 q 1763 411 1748 376 q 1785 484 1778 446 m 1396 8 q 1478 16 1437 8 q 1536 33 1520 24 l 1539 29 q 1449 -11 1507 7 q 1319 -30 1390 -30 q 800 267 1002 -30 q 751 331 777 300 q 692 391 724 361 q 626 441 661 420 q 554 474 591 462 q 478 486 518 487 q 401 467 439 484 q 303 323 303 414 l 303 149 q 328 40 303 73 q 404 6 353 6 l 404 0 l 36 0 l 36 6 q 111 40 86 6 q 136 149 136 73 l 136 816 q 111 926 136 892 q 36 960 85 960 l 36 965 l 136 965 q 315 980 191 965 q 516 995 439 995 q 863 776 863 995 q 854 715 863 743 q 832 666 845 687 q 794 627 819 646 q 749 596 770 608 q 694 570 728 584 q 637 549 660 557 q 576 530 614 542 q 676 517 628 532 q 760 478 725 501 q 832 417 795 456 q 892 348 869 378 q 945 273 916 317 q 1007 192 975 229 q 1068 130 1040 155 q 1130 83 1096 104 q 1187 50 1164 62 q 1243 29 1211 38 q 1292 16 1276 20 q 1336 10 1308 12 q 1370 8 1364 8 q 1396 8 1375 8 m 303 404 q 350 458 319 434 q 417 499 381 482 q 492 532 452 515 q 567 569 531 549 q 632 614 603 589 q 679 678 661 639 q 696 766 696 717 q 639 913 696 854 q 479 972 583 972 q 303 960 401 972 l 303 404 z "},"":{"ha":969,"x_min":57,"x_max":937,"o":"m 830 269 l 549 269 l 549 274 q 606 418 606 302 l 606 825 q 549 968 606 940 l 549 974 l 830 974 l 830 968 q 773 825 773 940 l 773 418 q 830 274 773 302 l 830 269 m 931 224 l 937 224 l 937 0 l 57 0 l 57 5 q 113 149 113 34 l 113 816 q 57 960 113 932 l 57 965 l 337 965 l 337 960 q 281 816 281 932 l 281 19 l 723 19 q 807 37 769 19 q 870 86 846 56 q 909 151 895 117 q 931 224 924 186 z "},"":{"ha":1221,"x_min":57,"x_max":1146,"o":"m 932 19 q 1016 37 978 19 q 1079 86 1055 56 q 1119 151 1104 117 q 1141 224 1134 186 l 1146 224 l 1146 0 l 57 0 l 57 5 q 113 149 113 34 l 113 816 q 57 960 113 932 l 57 965 l 337 965 l 337 960 q 281 816 281 932 l 281 19 l 932 19 m 978 297 q 939 272 978 297 q 809 246 901 246 q 640 297 718 246 q 517 435 562 348 q 472 625 472 523 q 499 772 472 702 q 571 893 526 842 q 678 974 616 944 q 809 1004 741 1004 q 940 974 878 1004 q 1047 893 1002 944 q 1119 772 1093 842 q 1146 625 1146 702 q 1101 435 1146 523 q 978 297 1056 348 m 894 937 q 875 961 894 937 q 809 985 855 985 q 724 937 763 985 q 662 806 685 888 q 640 625 640 723 q 662 445 640 528 q 724 314 685 362 q 809 266 763 266 q 894 314 855 266 q 956 445 933 362 q 979 625 979 528 q 956 806 979 723 q 894 937 933 888 z "},"":{"ha":1222,"x_min":25,"x_max":1198,"o":"m 1198 960 q 1158 951 1179 960 q 1116 927 1137 943 q 1081 882 1095 911 q 1067 816 1067 852 l 1067 138 l 1151 0 l 983 0 l 758 374 l 758 138 l 842 0 l 675 0 l 175 830 l 175 149 q 189 83 175 113 q 224 38 203 54 q 266 14 245 22 q 305 6 287 6 l 305 0 l 25 0 l 25 6 q 64 14 43 6 q 106 38 85 22 q 141 83 127 54 q 155 149 155 113 l 155 816 q 141 882 155 852 q 106 927 127 911 q 64 951 85 943 q 25 960 43 960 l 25 965 l 259 965 l 739 170 l 739 406 l 402 965 l 568 965 l 739 682 l 739 816 q 725 882 739 852 q 690 927 711 911 q 648 951 669 943 q 608 960 627 960 l 608 965 l 889 965 l 889 960 q 850 951 871 960 q 807 927 829 943 q 772 882 786 911 q 758 816 758 852 l 758 650 l 1048 170 l 1048 816 q 1034 882 1048 852 q 999 927 1020 911 q 957 951 978 943 q 918 960 936 960 l 918 965 l 1198 965 l 1198 960 z "},"":{"ha":1478,"x_min":25,"x_max":1428,"o":"m 1428 224 q 1426 183 1426 224 q 1427 80 1426 142 q 1428 0 1428 18 l 983 0 l 402 965 l 1388 965 l 1388 741 l 1382 741 q 1360 814 1375 779 q 1321 879 1345 848 q 1258 928 1296 909 q 1173 946 1219 946 l 580 946 l 919 384 q 939 455 923 424 q 975 505 955 487 q 1020 536 994 523 q 1064 554 1046 549 q 1100 562 1082 559 q 1167 575 1137 567 q 1226 598 1196 584 q 1279 636 1256 612 q 1319 692 1303 660 l 1325 692 q 1200 356 1237 454 l 1194 356 q 1211 472 1221 429 q 1173 532 1202 515 q 1100 543 1143 548 q 1081 539 1090 541 q 1055 532 1072 538 q 1023 518 1038 526 q 990 497 1008 511 q 961 466 973 483 q 940 422 949 448 q 930 366 931 397 l 1139 19 l 1213 19 q 1298 37 1259 19 q 1361 86 1336 56 q 1400 151 1385 117 q 1422 224 1415 186 l 1428 224 m 25 965 l 259 965 l 842 0 l 675 0 l 175 830 l 175 149 q 189 83 175 113 q 224 38 203 54 q 266 14 245 22 q 305 6 287 6 l 305 0 l 25 0 l 25 6 q 64 14 43 6 q 106 38 85 22 q 141 83 127 54 q 155 149 155 113 l 155 816 q 141 882 155 852 q 106 927 127 911 q 64 951 85 943 q 25 960 43 960 l 25 965 z "},"":{"ha":1211,"x_min":24,"x_max":1187,"o":"m 24 965 l 1187 965 l 1187 741 l 1181 741 q 1160 814 1175 779 q 1120 879 1145 848 q 1057 928 1095 909 q 972 946 1019 946 l 900 946 l 900 149 q 957 5 900 34 l 957 0 l 676 0 l 676 5 q 733 149 733 34 l 733 946 l 478 946 l 478 149 q 534 5 478 34 l 534 0 l 254 0 l 254 5 q 311 149 311 34 l 311 946 l 238 946 q 154 928 192 946 q 91 879 115 909 q 51 814 66 848 q 29 741 36 779 l 24 741 l 24 965 z "},"":{"ha":1662,"x_min":24,"x_max":1605,"o":"m 1605 960 q 1548 816 1548 932 l 1548 149 q 1605 5 1548 34 l 1605 0 l 1324 0 l 1324 5 q 1381 149 1381 34 l 1381 473 l 926 473 l 926 149 q 983 5 926 34 l 983 0 l 703 0 l 703 5 q 759 149 759 34 l 759 816 q 742 916 759 886 q 703 946 726 946 l 478 946 l 478 149 q 534 5 478 34 l 534 0 l 254 0 l 254 5 q 311 149 311 34 l 311 946 l 238 946 q 154 928 192 946 q 91 879 115 909 q 51 814 66 848 q 29 741 36 779 l 24 741 l 24 965 l 983 965 l 983 960 q 926 816 926 932 l 926 492 l 1381 492 l 1381 816 q 1324 960 1381 932 l 1324 965 l 1605 965 l 1605 960 z "},"":{"ha":1643,"x_min":65,"x_max":1590,"o":"m 1223 618 q 1411 528 1337 570 q 1523 445 1484 486 q 1576 364 1562 403 q 1590 275 1590 326 q 1487 56 1590 142 q 1226 -30 1383 -30 q 1139 -22 1190 -30 q 1046 -5 1088 -14 q 964 10 1003 3 q 903 15 926 17 q 881 0 881 14 l 876 0 q 764 550 852 116 q 747 627 755 594 q 728 698 739 659 q 705 765 717 736 q 676 824 693 793 q 639 876 659 854 q 592 917 619 897 q 535 949 566 937 q 465 969 504 962 q 380 976 425 976 q 220 931 285 976 q 155 825 155 886 q 174 761 155 789 q 249 699 193 734 q 412 618 306 663 q 600 528 527 570 q 712 445 673 486 q 766 364 751 403 q 780 275 780 326 q 676 56 780 142 q 416 -30 572 -30 q 329 -22 380 -30 q 236 -5 278 -14 q 155 10 193 3 q 94 15 116 17 q 71 0 71 14 l 65 0 l 65 248 l 71 248 q 99 169 71 214 q 172 84 127 125 q 283 17 217 44 q 416 -11 349 -11 q 605 40 532 -11 q 677 174 677 92 q 612 325 677 257 q 412 451 548 392 q 353 476 392 460 q 255 519 286 505 q 178 559 223 533 q 114 607 134 585 q 80 664 95 630 q 65 739 65 697 q 87 827 65 783 q 149 910 110 872 q 249 971 189 947 q 380 995 310 995 q 463 987 416 995 q 549 970 511 979 q 621 955 587 962 q 673 950 654 948 q 692 965 692 951 l 699 965 q 783 550 727 823 q 804 449 795 491 q 828 355 814 406 q 856 267 842 303 q 890 189 870 230 q 933 121 911 149 q 986 66 956 93 q 1052 24 1017 39 q 1131 -1 1087 8 q 1226 -11 1175 -11 q 1415 40 1343 -11 q 1487 174 1487 92 q 1423 325 1487 257 q 1223 451 1358 392 q 1164 476 1202 460 q 1065 519 1097 505 q 989 559 1034 533 q 925 607 944 585 q 890 664 905 630 q 876 739 876 697 q 898 827 876 783 q 960 910 920 872 q 1060 971 999 947 q 1190 995 1120 995 q 1274 987 1226 995 q 1359 970 1321 979 q 1431 955 1397 962 q 1484 950 1465 948 q 1503 965 1503 951 l 1509 965 l 1509 718 l 1503 718 q 1489 780 1503 746 q 1447 848 1475 813 q 1382 911 1419 882 q 1295 958 1345 940 q 1190 976 1244 976 q 1030 931 1095 976 q 966 825 966 886 q 984 761 966 789 q 1060 699 1003 734 q 1223 618 1116 663 z "},"":{"ha":1351,"x_min":25,"x_max":1299,"o":"m 932 618 q 1120 528 1046 570 q 1232 445 1193 486 q 1285 364 1271 403 q 1299 275 1299 326 q 1196 56 1299 142 q 935 -30 1092 -30 q 836 -24 878 -30 q 747 -1 794 -18 q 661 52 700 16 q 588 144 621 88 q 388 480 491 309 q 230 741 285 652 l 175 830 l 175 149 q 189 83 175 113 q 224 38 203 54 q 266 14 245 22 q 305 6 287 6 l 305 0 l 25 0 l 25 6 q 64 14 43 6 q 106 38 85 22 q 141 83 127 54 q 155 149 155 113 l 155 816 q 141 882 155 852 q 106 927 127 911 q 64 951 85 943 q 25 960 43 960 l 25 965 q 141 965 62 965 q 259 965 221 966 l 780 103 q 935 -11 851 -11 q 1124 40 1052 -11 q 1196 174 1196 92 q 1132 325 1196 257 q 932 451 1067 392 q 873 476 911 460 q 774 519 806 505 q 698 559 743 533 q 634 607 653 585 q 600 664 614 630 q 585 739 585 697 q 607 827 585 783 q 669 910 629 872 q 769 971 708 947 q 899 995 829 995 q 983 987 935 995 q 1068 970 1030 979 q 1140 955 1106 962 q 1193 950 1174 948 q 1212 965 1212 951 l 1218 965 l 1218 718 l 1212 718 q 1198 780 1212 746 q 1156 848 1184 813 q 1091 911 1128 882 q 1004 958 1055 940 q 899 976 954 976 q 740 931 804 976 q 675 825 675 886 q 693 761 675 789 q 769 699 712 734 q 932 618 825 663 z "},"":{"ha":1432,"x_min":49,"x_max":1395,"o":"m 565 293 q 542 336 565 293 q 519 483 519 380 q 565 673 519 586 q 687 811 610 760 q 856 861 764 861 q 987 831 924 861 q 1094 751 1049 802 q 1166 630 1139 700 q 1193 483 1193 559 q 1148 293 1193 380 q 1025 155 1103 205 q 856 104 947 104 q 687 155 764 104 q 565 293 610 205 m 1003 302 q 1014 344 1003 302 q 1025 483 1025 385 q 1003 663 1025 581 q 941 794 980 746 q 856 842 902 842 q 736 737 786 842 q 687 483 687 632 q 736 229 687 334 q 856 123 786 123 q 941 172 902 123 q 1003 302 980 220 m 1395 177 q 1197 56 1318 104 q 952 -11 1076 8 q 694 -30 828 -30 q 445 6 562 -30 q 239 106 328 41 q 100 268 151 170 q 49 483 49 366 q 106 698 49 601 q 263 860 163 795 q 498 960 363 924 q 790 995 633 995 q 959 987 869 995 q 1114 970 1048 979 q 1235 955 1179 962 q 1320 950 1291 948 q 1349 965 1349 951 l 1355 965 l 1355 718 l 1349 718 q 1330 793 1349 757 q 1269 862 1312 829 q 1162 921 1225 896 q 1003 961 1099 946 q 790 976 907 976 q 556 937 664 976 q 374 832 448 899 q 258 675 300 766 q 216 483 216 585 q 291 239 216 348 q 497 70 366 131 q 790 8 629 8 q 1131 53 978 8 q 1383 189 1284 97 l 1395 177 z "},"":{"ha":1432,"x_min":49,"x_max":1395,"o":"m 498 140 q 554 283 554 168 l 554 682 q 498 825 554 798 l 498 831 l 1176 831 l 1176 607 l 1171 607 q 1149 680 1164 645 q 1109 745 1134 714 q 1046 793 1084 775 q 962 812 1008 812 l 722 812 l 722 450 q 831 526 760 508 q 964 565 935 551 q 1038 633 1009 586 q 1050 656 1044 644 l 1056 656 q 931 319 968 418 l 925 319 q 942 436 951 393 q 903 495 932 479 q 831 506 874 511 q 799 499 815 504 q 760 474 783 494 q 722 426 736 455 l 722 153 l 1002 153 q 1086 172 1048 153 q 1149 220 1124 190 q 1188 286 1173 251 q 1210 358 1203 320 l 1216 358 l 1216 134 l 498 134 l 498 140 m 1395 177 q 1197 56 1318 104 q 952 -11 1076 8 q 694 -30 828 -30 q 445 6 562 -30 q 239 106 328 41 q 100 268 151 170 q 49 483 49 366 q 106 698 49 601 q 263 860 163 795 q 498 960 363 924 q 790 995 633 995 q 959 987 869 995 q 1114 970 1048 979 q 1235 955 1179 962 q 1320 950 1291 948 q 1349 965 1349 951 l 1355 965 l 1355 718 l 1349 718 q 1330 793 1349 757 q 1269 862 1312 829 q 1162 921 1225 896 q 1003 961 1099 946 q 790 976 907 976 q 556 937 664 976 q 374 832 448 899 q 258 675 300 766 q 216 483 216 585 q 291 239 216 348 q 497 70 366 131 q 790 8 629 8 q 1131 53 978 8 q 1383 189 1284 97 l 1395 177 z "}}}
